<svg id="driving" viewBox="0 0 1280 640" preserveAspectRatio="xMidYMid slice" xmlns="http://www.w3.org/2000/svg">
  <defs>
    <linearGradient id="sky-color" x1="0" y1="0" x2="0" y2="1" gradientUnits="objectBoundingBox">
      <stop offset="0" stop-color="#15dbff"></stop>
      <stop offset="1" stop-color="#0077bf"></stop>
    </linearGradient>
    <linearGradient id="hills-color" x1="0" y1="0" x2="0" y2="1" gradientUnits="objectBoundingBox">
      <stop offset="0" stop-color="#99c943"></stop>
      <stop offset="1" stop-color="#009130"></stop>
    </linearGradient>
  </defs>
  <g id="world">
    <rect id="sky" width="1280" height="640" fill="url(#sky-color)"></rect>
    <g id="road">
      <rect id="surface" y="488" width="2560" height="152" fill="#4f4f4f"></rect>
      <line id="marking" x1="0" y1="564" x2="2560" y2="564" style="stroke: rgb(255, 255, 255); stroke-dasharray: 102.4; stroke-width: 6px;"></line>
    </g>
    <path id="hills" d="M2176,284c-87.89,5.71-255.93-75.59-344-76-72.57-.33-211.44,58.88-284,60-68.06,1.06-172-48-268-48v-1.07C1068,220,945.88,280.76,896,284c-87.89,5.71-255.93-75.59-344-76-72.57-.33-211.44,58.88-284,60-68.06,1.06-172-48-268-48V488l1280-1.07V488l1280-1.07v-268C2348,220,2225.88,280.76,2176,284Z" fill="url(#hills-color)"></path>
  </g>
  <g id="car">
    <g id="body-panels">
      <path id="body-panel-1" d="M 836 576 L 864 576 C 864 576 860.1 508.05 844 500 C 827.9 491.95 756 488 756 488 C 756 488 716.054 432.166 689.514 427.746 C 641.514 419.746 548.11 413.601 493.605 431.185 C 454.173 443.906 436.11 479.34 432 504 C 428 528 432 576 432 576 L 460 576 C 460 542.129 496.667 520.959 526 537.895 C 539.614 545.755 548 560.28 548 576 L 748 576 C 748 542.129 784.667 520.959 814 537.895 C 827.614 545.755 836 560.28 836 576 Z" style="fill: rgb(216, 216, 216);"></path>
      <path id="body-panel-2" d="M 748 576 L 548 576 C 548 564.411 543.442 553.471 535.592 545.373 L 760.368 545.373 C 752.822 553.104 748 563.717 748 576 Z M 460 576 L 432 576 C 432 576 430.835 562.018 430.391 545.373 L 472.368 545.373 C 464.822 553.104 460 563.717 460 576 Z M 864 576 L 836 576 C 836 564.411 831.442 553.471 823.592 545.373 L 860.726 545.373 C 863.177 561.659 864 576 864 576 Z" style="fill: rgb(138, 138, 138);"></path>
      <path id="body-panel-3" d="M 432 504 C 436.11 479.34 454.173 443.906 493.605 431.185 C 548.11 413.601 641.514 419.746 689.514 427.746 C 716.054 432.166 756 488 756 488 C 756 488 827.9 491.95 844 500 C 846.656 501.328 848.98 504.286 851.009 508.301 L 431.395 508.301 C 431.572 506.799 431.773 505.361 432 504 Z" style="fill: rgb(238, 238, 238);"></path>
    </g>
    <g id="windows">
      <path id="front-window" style="fill: rgb(63, 156, 230);" d="M 598.404 436.737 L 604.825 491.85 L 730.568 491.85 C 730.568 491.85 712.91 453.859 683.481 444.763 C 654.052 435.667 598.939 435.667 598.404 436.737 Z"></path>
      <path id="rear-window" style="fill: rgb(63, 156, 230);" d="M 458.75 493.455 C 458.75 493.455 467.846 456.535 500.485 447.438 C 533.124 438.341 579.141 436.26 579.141 436.26 L 584.309 492.743 L 458.75 493.455 Z"></path>
    </g>
    <g id="front-wheel" style="transform-box: fill-box; transform-origin: center;">
      <path id="front-tire" d="M792,536a40,40,0,1,0,40,40A40,40,0,0,0,792,536Zm0,14a26,26,0,1,1-26,26A26.07,26.07,0,0,1,792,550Zm0,3.06a22.86,22.86,0,0,0-9.72,2.15c2,5.59,5.33,12.66,9.72,12.66s7.65-7.09,9.66-12.69A22.94,22.94,0,0,0,792,553Zm16.81,7.3c-4.72,3.6-10.41,9-9,13.16s9.11,5.08,15.06,5.27A24.92,24.92,0,0,0,815,576,22.88,22.88,0,0,0,808.81,560.32Zm-33.66,0A22.92,22.92,0,0,0,769,576a23.35,23.35,0,0,0,.17,2.79c5.93-.14,13.68-1.16,15-5.33s-4.37-9.45-9.08-13.1ZM792,570.55a5.45,5.45,0,1,0,5.45,5.45A5.45,5.45,0,0,0,792,570.55Zm-7.76,11.2c-3.67,0-8.55,2.86-12.33,5.43a23,23,0,0,0,15.69,11.38c1.7-5.69,3.13-13.38-.42-16A4.76,4.76,0,0,0,784.24,581.75Zm15.49,0a4.91,4.91,0,0,0-3,.86c-3.56,2.58-2,10.23-.35,15.94a22.93,22.93,0,0,0,15.67-11.4c-3.74-2.59-8.67-5.4-12.37-5.4Z" style="transform-box: fill-box; transform-origin: 50% 50%;"></path>
      <path id="front-rim" d="M 792 550 C 812.014 550 824.524 571.666 814.516 589 C 804.509 606.333 779.49 606.333 769.483 589 C 767.201 585.047 766 580.564 766 576 C 766.038 561.656 777.656 550.038 792 550 Z M 792 553.06 C 788.641 553.054 785.322 553.788 782.28 555.21 C 784.28 560.8 787.61 567.87 792 567.87 C 796.39 567.87 799.65 560.78 801.66 555.18 C 798.637 553.758 795.34 553.014 792 553 L 792 553.06 Z M 808.81 560.36 C 804.09 563.96 798.4 569.36 799.81 573.52 C 801.22 577.68 808.92 578.6 814.87 578.79 C 814.965 577.863 815.008 576.931 815 576 C 815.007 570.176 812.793 564.568 808.81 560.32 L 808.81 560.36 Z M 775.15 560.36 C 771.193 564.606 768.995 570.196 769 576 C 769.001 576.932 769.057 577.864 769.17 578.79 C 775.1 578.65 782.85 577.63 784.17 573.46 C 785.49 569.29 779.8 564.01 775.09 560.36 L 775.15 560.36 Z M 792 570.55 C 787.804 570.55 785.182 575.091 787.28 578.725 C 789.377 582.358 794.622 582.358 796.719 578.725 C 797.198 577.896 797.45 576.956 797.45 576 C 797.45 572.99 795.01 570.55 792 570.55 Z M 784.24 581.75 C 780.57 581.75 775.69 584.61 771.91 587.18 C 775.208 593.099 780.949 597.263 787.6 598.56 C 789.3 592.87 790.73 585.18 787.18 582.56 C 786.315 581.975 785.282 581.69 784.24 581.75 Z M 799.73 581.75 C 798.663 581.702 797.609 582.004 796.73 582.61 C 793.17 585.19 794.73 592.84 796.38 598.55 C 803.031 597.252 808.767 593.079 812.05 587.15 C 808.31 584.56 803.38 581.75 799.68 581.75 L 799.73 581.75 Z" style="transform-origin: 792px 576px; fill: rgb(170, 170, 170);"></path>
    </g>
    <g id="rear-wheel" style="transform-box: fill-box; transform-origin: center;">
      <path id="rear-tire" d="M504,536a40,40,0,1,0,40,40A40,40,0,0,0,504,536Zm0,14a26,26,0,1,1-26,26A26.07,26.07,0,0,1,504,550Zm0,3.06a22.86,22.86,0,0,0-9.72,2.15c2,5.59,5.33,12.66,9.72,12.66s7.65-7.09,9.66-12.69A22.94,22.94,0,0,0,504,553Zm16.81,7.3c-4.72,3.6-10.41,9-9,13.16s9.11,5.08,15.06,5.27A24.92,24.92,0,0,0,527,576,22.88,22.88,0,0,0,520.81,560.32Zm-33.66,0A22.92,22.92,0,0,0,481,576a23.35,23.35,0,0,0,.17,2.79c5.93-.14,13.68-1.16,15-5.33s-4.37-9.45-9.08-13.1ZM504,570.55a5.45,5.45,0,1,0,5.45,5.45A5.45,5.45,0,0,0,504,570.55Zm-7.76,11.2c-3.67,0-8.55,2.86-12.33,5.43a23,23,0,0,0,15.69,11.38c1.7-5.69,3.13-13.38-.42-16A4.76,4.76,0,0,0,496.24,581.75Zm15.49,0a4.91,4.91,0,0,0-3,.86c-3.56,2.58-2,10.23-.35,15.94a22.93,22.93,0,0,0,15.67-11.4c-3.74-2.59-8.67-5.4-12.37-5.4Z" style="transform-box: fill-box; transform-origin: 50% 50%;"></path>
      <path id="rear-rim" d="M 504.06 550 C 524.075 550 536.584 571.667 526.576 589 C 516.569 606.333 491.551 606.333 481.543 589 C 479.261 585.047 478.06 580.564 478.06 576 C 478.098 561.657 489.716 550.038 504.06 550 Z M 504.06 553.06 C 500.701 553.054 497.383 553.788 494.34 555.21 C 496.34 560.8 499.67 567.87 504.06 567.87 C 508.45 567.87 511.71 560.78 513.72 555.18 C 510.697 553.759 507.4 553.015 504.06 553 L 504.06 553.06 Z M 520.87 560.36 C 516.15 563.96 510.46 569.36 511.87 573.52 C 513.28 577.68 520.98 578.6 526.93 578.79 C 527.025 577.863 527.069 576.932 527.06 576 C 527.067 570.176 524.854 564.568 520.87 560.32 L 520.87 560.36 Z M 487.21 560.36 C 483.254 564.607 481.056 570.196 481.06 576 C 481.061 576.933 481.117 577.864 481.23 578.79 C 487.16 578.65 494.91 577.63 496.23 573.46 C 497.55 569.29 491.86 564.01 487.15 560.36 L 487.21 560.36 Z M 504.06 570.55 C 499.864 570.55 497.242 575.092 499.34 578.725 C 501.438 582.358 506.682 582.358 508.78 578.725 C 509.258 577.896 509.51 576.957 509.51 576 C 509.51 572.99 507.07 570.55 504.06 570.55 Z M 496.3 581.75 C 492.63 581.75 487.75 584.61 483.97 587.18 C 487.268 593.099 493.009 597.263 499.66 598.56 C 501.36 592.87 502.79 585.18 499.24 582.56 C 498.375 581.975 497.342 581.69 496.3 581.75 Z M 511.79 581.75 C 510.723 581.703 509.67 582.005 508.79 582.61 C 505.23 585.19 506.79 592.84 508.44 598.55 C 515.091 597.252 520.828 593.079 524.11 587.15 C 520.37 584.56 515.44 581.75 511.74 581.75 L 511.79 581.75 Z" style="transform-origin: 504.06px 576px; fill: rgb(170, 170, 170);"></path>
    </g>
  </g>
</svg>