<svg viewBox="0 0 500 500" width="500px" height="500px" xmlns="http://www.w3.org/2000/svg">
  <rect width="500" height="500" style="fill: rgb(255, 255, 255);"></rect>
  <g id="butterfly">
    <path id="butterfly-body" d="M 3.465 6.946 C -14.373 6.947 -34.665 1.598 -34.665 -0.432 C -34.665 -2.463 -15.513 -7.859 3.464 -7.86 C 9.974 -7.861 12.519 -5.052 12.519 -0.459 C 12.539 3.712 10.021 6.945 3.465 6.946 Z" style="fill: rgb(130, 51, 255);"></path>
    <path id="butterfly-antenna" d="M 11.738 -1.885 C 12.363 -1.885 25.742 -1.886 33.88 -7.371 C 34.293 -7.063 34.789 -6.883 35.306 -6.859 C 36.68 -6.86 37.784 -7.984 37.761 -9.358 C 37.761 -10.712 36.663 -11.81 35.306 -11.809 C 33.953 -11.809 32.855 -10.711 32.855 -9.357 C 32.872 -8.983 32.971 -8.617 33.145 -8.286 C 25.228 -3.112 11.895 -3.044 11.738 -3.044 L 11.738 -1.885 Z" style="fill: rgb(51, 71, 255);"></path>
    <path id="butterfly-wing" d="M -5.592 -36.114 C -1.824 -39.524 2.303 -42.513 6.719 -45.031 C 24.556 -55.38 43.399 -56.43 48.64 -47.265 C 53.88 -38.102 43.467 -22.581 25.63 -12.323 C 11.404 -4.093 0.7 -0.435 -8.464 -0.434 C -16.818 -0.678 -25.088 -2.179 -32.995 -4.892 C -46.753 -9.506 -54.849 -22.33 -51.079 -33.545 C -47.312 -44.761 -33.086 -49.959 -19.328 -45.501 C -13.952 -43.735 -9.188 -40.479 -5.592 -36.114 Z" style="fill: rgb(51, 153, 255); transform-box:fill-box;transform-origin:center bottom"></path>
  </g>
  <path style="stroke: rgb(0, 0, 0); fill: none; stroke-width: 2px; stroke-dasharray: 5;" visibility="hidden" d="M -92.315 265.04 C -3.102 258.403 -4.5 285.074 116.267 285.074 C 159.604 285.074 232.879 257.191 297.424 258.277 C 362.573 259.373 347.269 277.15 435.614 278.358 C 507 279.334 543.894 258.055 610.628 259.133" id="path"></path>
</svg>