<svg viewBox="0 0 500 500" width="500px" height="500px" xmlns="http://www.w3.org/2000/svg">
  <rect width="500" height="500" style="fill: rgb(255, 255, 255); stroke-linecap: round; stroke-linejoin: round;"></rect>
  <path d="M 155.143 178.655 C 139.044 193.392 137.672 217.962 119.972 231.937 C 109.39 240.29 100.386 232.641 100 221.643" fill="none" style="stroke-width: 5px; stroke-linecap: round; stroke-linejoin: round; stroke: rgb(51, 153, 255);" id="text-h-1"></path>
  <path d="M 182.813 180.319 C 175.939 192.428 160.589 212.722 158.865 227.273 C 156.708 245.488 179.423 226.564 182.813 221.835" fill="none" style="stroke-width: 5px; stroke-linecap: round; stroke-linejoin: round; stroke: rgb(51, 153, 255);" id="text-h-2"></path>
  <path d="M 124.769 207.762 C 141.087 208.484 156.607 208.764 172.804 208.847" fill="none" style="stroke-width: 5px; stroke-linecap: round; stroke-linejoin: round; stroke: rgb(51, 153, 255);" id="text-h-3"></path>
  <path d="M 241.651 182.885 C 224.604 197.609 231.676 217.514 214.386 232.605 C 205.22 240.604 197.683 237.593 197.102 224.906" fill="none" style="stroke-width: 5px; stroke-linecap: round; stroke-linejoin: round; stroke: rgb(51, 153, 255);" id="text-t-1"></path>
  <path d="M 205.252 183.724 C 228.387 176.362 249.035 184.392 272.834 183.198" fill="none" style="stroke-width: 5px; stroke-linecap: round; stroke-linejoin: round; stroke: rgb(51, 153, 255);" id="text-t-2"></path>
  <path d="M 249.484 223.882 C 250.969 237.334 264.749 235.543 272.262 227.912 C 286.882 213.063 287.375 189.79 306.035 179.356 C 301.705 188.12 300.55 200.001 300.473 209.553 C 300.438 213.86 300.258 218.082 299.584 222.336 C 299.235 224.532 295.464 229.887 297.018 228.296 C 301.267 223.946 334.792 179.722 350.837 175.138 C 334.853 181.817 326.583 206.064 321.02 220.876 C 312.8 242.764 331.268 231.207 338.547 221.835" fill="none" style="stroke-width: 5px; stroke-linecap: round; stroke-linejoin: round; stroke: rgb(51, 153, 255);" id="text-m"></path>
  <path d="M 388.486 180.128 C 375.204 193.585 371.864 232.155 350.419 235.559 C 346.839 236.127 359.111 233.672 362.733 233.646 C 375.839 233.552 387.177 234.839 400 231.732" fill="none" style="stroke-width: 5px; stroke-linecap: round; stroke-linejoin: round; stroke: rgb(51, 153, 255);" id="text-l"></path>
  <path d="M 178.055 265.558 C 159.55 260.136 144.049 266.488 134.716 279.72 C 120.938 299.253 116.226 327.804 131.472 327.644 C 154.567 327.401 152.196 298.573 178.066 265.65 C 167.928 276.896 161.021 291.255 154.565 304.827 C 143.435 328.226 158.241 325.355 169.683 310.648 C 193.136 281.124 178.932 303.577 171.091 323.159 C 169.23 327.799 176.448 314.715 179.353 310.648 C 180.211 309.446 192.84 293.469 198.085 296.767 C 198.371 296.945 186.981 318.553 186.635 320.142 C 185.076 327.25 194.034 321.307 195.655 319.737 C 198.632 316.847 201.326 313.678 204.162 310.648 C 206.18 308.198 214.435 296.231 218.491 295.743 C 219.8 295.586 216.892 297.851 216.252 299.005 C 212.113 306.468 201.54 314.952 205.772 322.359 C 209.285 328.508 221.759 312.847 223.481 310.648 C 225.898 307.769 228.223 304.811 230.733 302.012 C 232.868 299.632 238.932 293.573 238.769 296.767 C 238.455 302.91 232.367 307.345 230.134 313.079 C 228.836 316.408 224.139 325.843 226.498 323.159 C 229.329 319.945 241.075 292.451 251.115 297.15 C 253.322 298.185 248.615 302.694 242.416 315.317 C 241.496 317.183 239.764 323.146 240.816 321.349 C 242.792 317.977 257.4 292.843 264.997 296.958 C 266.796 297.934 244.801 339.116 267.236 316.533 C 268.094 315.669 276.436 303.057 282.943 298.928 C 290.401 294.195 296.132 297.875 297.014 296.789 C 285.305 295.203 278.928 299.387 272.819 309.88 C 270.78 313.382 266.489 320.131 270.202 321.752 C 278.052 325.182 287.841 309.56 291.352 303.803 C 291.776 303.105 297.634 295.772 297.173 296.958 C 293.791 305.634 281.629 313.167 284.699 321.957 C 285.461 324.145 289.619 322.042 291.544 320.749 C 293.836 319.206 295.838 317.253 297.813 315.317 C 299.279 313.878 300.499 312.204 301.843 310.648 C 306.23 306.151 312.851 300.623 316.172 295.167 C 318.024 292.121 319.189 288.701 320.777 285.508 C 321.63 283.792 325.412 279.479 324.616 281.222 C 323.915 282.757 302.173 314.95 305.67 321.957 C 307.472 325.566 316.969 318.273 318.155 317.109 C 320.103 315.19 324.968 310.714 329.118 305.484 C 326.502 310.12 310.451 331.371 331.547 321.94 C 339.109 318.558 358.908 287.626 341.597 294.528 C 333.467 299.71 334.943 299.292 329.07 305.57 C 322.553 312.536 315.489 326.352 325.522 324.239 C 334.183 321.439 343.62 315.819 348.988 310.648 C 373.378 279.391 358.364 304.328 350.597 323.767 C 348.471 329.097 355.768 313.497 358.863 308.665 C 360.891 305.498 382.694 288.85 375.79 304.251" fill="none" style="stroke-width: 5px; stroke-linecap: round; stroke-linejoin: round; stroke: rgb(51, 71, 255);" id="text-animator"></path>
  <path d="M 224.504 280.455 C 222.247 284.967 225.781 283.336 226.551 280.646" fill="none" style="stroke-width: 5px; stroke-linecap: round; stroke-linejoin: round; stroke: rgb(51, 71, 255);" id="text-animator-i-dot"></path>
  <path d="M 307.888 297.15 C 313.656 295.322 319.972 296.455 326.023 296.383" fill="none" style="stroke-width: 5px; stroke-linecap: round; stroke-linejoin: round; stroke: rgb(51, 71, 255);" id="text-animator-t-dash"></path>
  <path d="M 452.246 252 C 452.246 166.14 355.761 102.605 241.778 107.327 C 127.795 112.049 51.066 160.598 45.754 250 C 40.442 339.402 141.556 402.609 257.309 399.067 C 373.062 395.525 453.246 333.86 453.246 248" style="fill: none; transform-box: fill-box; transform-origin: 50% 50%; stroke-linecap: round; stroke-linejoin: round; stroke-width: 5px; stroke: rgb(130, 51, 255);" id="frame-inner" transform="matrix(-1, 0, 0, -1, 0.200298, -6.288742)"></path>
  <path d="M 467.945 243.616 C 467.945 149.348 381.78 88.601 254.696 87.229 C 132.279 85.907 29.781 146.313 30.041 247.45 C 30.301 348.587 126.29 406.661 251.695 408.136 C 377.1 409.611 469.355 338.897 469.355 244.629" style="fill: none; stroke-linecap: round; stroke-linejoin: round; transform-origin: 249.764px 246.73px; stroke-width: 5px; stroke: rgb(130, 51, 255);" id="frame-outer" transform="matrix(-1, 0, 0, -1, 0.000015, 0.000015)"></path>
</svg>