<svg viewBox="0 0 500 500" width="500px" height="500px" xmlns="http://www.w3.org/2000/svg">
  <rect width="500" height="500" style="fill: rgb(255, 255, 255);"></rect>
  <path d="M 128.396 234.665 L 134.13 234.665 L 134.13 247.732 L 147.33 247.732 L 147.33 234.665 L 153.064 234.665 L 153.064 267.2 L 147.33 267.2 L 147.33 252.799 L 134.13 252.799 L 134.13 267.333 L 128.396 267.333 L 128.396 234.665 Z" style="stroke: rgb(51, 153, 255); isolation: isolate;" fill="#39f"></path>
  <path d="M 167.998 239.465 L 158.664 239.465 L 158.664 234.665 L 183.198 234.665 L 183.198 239.465 L 173.864 239.465 L 173.864 267.333 L 168.131 267.333 L 167.998 239.465 Z" style="stroke: rgb(51, 153, 255); isolation: isolate;" fill="#39f"></path>
  <path d="M 188.665 234.665 L 195.198 234.665 L 200.932 250.532 C 201.599 252.666 202.265 254.799 203.065 256.933 L 203.199 256.933 L 205.199 250.532 L 210.799 234.665 L 217.332 234.665 L 217.332 267.333 L 211.999 267.333 L 211.999 252.399 C 212.067 248.92 212.334 245.448 212.799 241.999 L 212.666 241.999 L 209.999 249.599 L 204.665 264.266 L 201.199 264.266 L 195.865 249.599 L 193.332 241.999 L 193.198 241.999 C 193.465 245.066 193.998 249.332 193.998 252.399 L 193.998 267.333 L 188.798 267.333 L 188.665 234.665 Z" style="stroke: rgb(51, 153, 255); isolation: isolate;" fill="#39f"></path>
  <path d="M 225.733 234.665 L 231.466 234.665 L 231.466 262.399 L 244.933 262.399 L 244.933 267.2 L 225.599 267.2 L 225.733 234.665 Z" style="stroke: rgb(51, 153, 255); isolation: isolate;" fill="#39f"></path>
  <path d="M 267.067 234.665 L 273.867 234.665 L 284.534 267.2 L 278.401 267.2 L 275.897 258.399 L 265.038 258.399 L 262.534 267.2 L 256.667 267.2 L 267.067 234.665 Z M 273.467 249.866 C 272.401 246.399 271.467 242.666 270.534 239.065 L 270.401 239.065 C 269.467 242.666 268.534 246.399 267.467 249.866 L 266.328 253.866 L 274.606 253.866 L 273.467 249.866 Z" style="stroke: rgb(51, 153, 255); isolation: isolate; fill: rgb(51, 153, 255);"></path>
  <path d="M 287.868 242.799 L 292.535 242.799 L 292.935 246.132 L 293.068 246.132 C 295.089 243.799 297.983 242.4 301.068 242.266 C 306.268 242.266 308.535 245.866 308.535 251.999 L 308.535 267.333 L 302.802 267.333 L 302.802 252.532 C 302.802 248.532 301.601 246.932 298.935 246.932 C 296.801 246.932 295.335 247.999 293.335 249.999 L 293.335 267.066 L 287.601 267.066 L 287.601 242.799 L 287.868 242.799 Z" style="stroke: rgb(51, 153, 255); isolation: isolate;" fill="#39f"></path>
  <path d="M 315.202 235.199 C 314.874 232.427 317.67 230.339 320.235 231.44 C 322.799 232.541 323.21 236.008 320.974 237.679 C 320.346 238.147 319.585 238.4 318.802 238.399 C 316.895 238.595 315.231 237.115 315.202 235.199 Z M 315.735 242.799 L 321.469 242.799 L 321.469 267.333 L 315.735 267.333 L 315.735 242.799 Z" style="stroke: rgb(51, 153, 255); isolation: isolate;" fill="#39f"></path>
  <path d="M 328.802 242.799 L 333.469 242.799 L 333.869 246.132 L 334.002 246.132 C 336.136 243.999 338.403 242.266 341.469 242.266 C 344.469 242.03 347.256 243.832 348.27 246.666 C 350.67 244.132 353.07 242.266 356.136 242.266 C 361.337 242.266 363.737 245.866 363.737 251.999 L 363.737 267.333 L 358.003 267.333 L 358.003 252.532 C 358.003 248.532 356.803 246.932 354.27 246.932 C 352.67 246.932 351.07 247.866 349.203 249.999 L 349.203 267.066 L 343.469 267.066 L 343.469 252.532 C 343.469 248.532 342.269 246.932 339.736 246.932 C 338.269 246.932 336.536 247.866 334.669 249.999 L 334.669 267.066 L 328.936 267.066 L 328.802 242.799 Z" style="stroke: rgb(51, 153, 255); isolation: isolate;" fill="#39f"></path>
  <path d="M 369.47 260.666 C 369.47 255.466 373.87 252.666 383.871 251.599 C 383.737 248.932 382.671 246.799 379.47 246.799 C 376.986 246.968 374.593 247.798 372.537 249.199 L 370.403 245.332 C 373.36 243.326 376.832 242.215 380.404 242.132 C 386.537 242.132 389.471 245.866 389.471 252.666 L 389.471 267.333 L 384.804 267.333 L 384.404 264.666 L 384.271 264.666 C 382.23 266.67 379.526 267.857 376.67 268 C 372.404 267.733 369.47 264.933 369.47 260.666 Z M 383.871 260.666 L 383.871 255.199 C 377.204 255.999 375.07 257.733 375.07 260.266 C 375.07 262.399 376.537 263.333 378.537 263.333 C 380.537 263.333 382.004 262.266 383.871 260.666 Z" style="stroke: rgb(51, 153, 255); isolation: isolate;" fill="#39f"></path>
  <path d="M 397.338 259.066 L 397.338 247.332 L 393.871 247.332 L 393.871 243.066 L 397.604 242.799 L 398.271 236.132 L 403.071 236.132 L 403.071 242.799 L 409.338 242.799 L 409.338 247.332 L 403.071 247.332 L 403.071 258.933 C 403.071 261.866 404.138 263.199 406.538 263.199 C 407.406 263.165 408.262 262.985 409.071 262.666 L 410.005 266.933 C 408.415 267.486 406.753 267.8 405.071 267.866 C 399.471 267.733 397.338 264.399 397.338 259.066 Z" style="stroke: rgb(51, 153, 255); isolation: isolate;" fill="#39f"></path>
  <path d="M 412.805 255.066 C 412.805 246.932 418.405 242.266 424.405 242.266 C 430.405 242.266 436.005 246.932 436.005 255.066 C 436.005 263.199 430.405 267.866 424.405 267.866 C 418.405 267.866 412.805 263.066 412.805 255.066 Z M 430.272 255.066 C 430.272 250.132 428.138 246.932 424.538 246.932 C 420.938 246.932 418.805 250.132 418.805 255.066 C 418.805 259.999 420.938 263.199 424.538 263.199 C 428.138 263.199 430.272 259.999 430.272 255.066 Z" style="stroke: rgb(51, 153, 255); isolation: isolate;" fill="#39f"></path>
  <path d="M 441.739 242.799 L 446.406 242.799 L 446.806 247.199 L 446.939 247.199 C 448.672 243.999 451.206 242.266 453.873 242.266 C 454.835 242.21 455.798 242.394 456.673 242.799 L 455.739 247.732 C 454.926 247.45 454.067 247.314 453.206 247.332 C 451.206 247.332 448.939 248.666 447.472 252.399 L 447.472 267.333 L 441.739 267.333 L 441.739 242.799 Z" style="stroke: rgb(51, 153, 255); isolation: isolate;" fill="#39f"></path>
  <path d="M 49.994 239.332 L 79.328 239.332 C 83.01 239.332 85.995 242.318 85.995 245.999 L 85.995 275.333 C 85.995 279.016 83.01 282 79.328 282 L 49.994 282 C 46.313 282 43.327 279.016 43.327 275.333 L 43.327 245.999 C 43.327 242.318 46.313 239.332 49.994 239.332 Z" fill="#8233ff" style="isolation: isolate; stroke: rgb(130, 51, 255); stroke-opacity: 0.4; fill-opacity: 0.4;"></path>
  <path d="M 49.333 263.046 L 54.308 234.369 C 54.937 230.741 58.388 228.31 62.016 228.94 L 90.693 233.915 C 94.321 234.544 96.752 237.995 96.122 241.623 L 91.147 270.3 C 90.518 273.928 87.067 276.359 83.439 275.729 L 54.762 270.754 C 51.134 270.125 48.703 266.674 49.333 263.046 Z" fill="#3347ff" style="isolation: isolate; stroke: rgb(51, 71, 255); stroke-opacity: 0.7; fill-opacity: 0.7;"></path>
  <path d="M 55.642 248.436 L 68.04 221.85 C 69.596 218.514 73.562 217.07 76.899 218.626 L 103.485 231.024 C 106.823 232.58 108.265 236.547 106.709 239.883 L 94.313 266.469 C 92.757 269.806 88.79 271.249 85.453 269.693 L 58.866 257.297 C 55.53 255.741 54.086 251.774 55.642 248.436 Z" fill="#39f" style="stroke: rgb(51, 153, 255);"></path>
</svg>