<?xml version="1.0" standalone="no"?>
<!DOCTYPE svg PUBLIC "-//W3C//DTD SVG 1.1//EN" "http://www.w3.org/Graphics/SVG/1.1/DTD/svg11.dtd" >
<svg xmlns="http://www.w3.org/2000/svg">
<metadata>Generated by IcoMoon</metadata>
<defs>
<font id="icomoon" horiz-adv-x="1024">
<font-face units-per-em="1024" ascent="960" descent="-64" />
<missing-glyph horiz-adv-x="1024" />
<glyph unicode="&#x20;" horiz-adv-x="512" d="" />
<glyph unicode="&#xe900;" glyph-name="svg-circle" d="M512-85.333c-282.77 0-512 229.23-512 512s229.23 512 512 512c282.77 0 512-229.23 512-512v0c-0.319-282.642-229.359-511.682-511.97-512h-0.030zM512 842.667c-229.75 0-416-186.25-416-416s186.25-416 416-416c229.75 0 416 186.25 416 416v0c-0.25 229.65-186.35 415.75-415.976 416h-0.024z" />
<glyph unicode="&#xe901;" glyph-name="svg-ellipse" d="M512 74.667c-133.16 0-259.040 34.4-354.4 96.88-101.6 66.6-157.6 157.2-157.6 255.12s56 188.52 157.6 255.12c95.36 62.48 221.24 96.88 354.4 96.88s259.040-34.4 354.4-96.88c101.6-66.6 157.6-157.2 157.6-255.12s-56-188.52-157.6-255.12c-95.36-62.48-221.24-96.88-354.4-96.88zM512 682.667c-114.72 0-221.88-28.84-301.8-81.2-73.64-48.24-114.2-110.32-114.2-174.8s40.56-126.56 114.2-174.8c79.92-52.36 187.080-81.2 301.8-81.2s221.88 28.84 301.8 81.2c73.64 48.24 114.2 110.32 114.2 174.8s-40.56 126.56-114.2 174.8c-79.92 52.36-187.080 81.2-301.8 81.2z" />
<glyph unicode="&#xe902;" glyph-name="svg-group" d="M0 458.667h447.16v-544h-447.16v544zM0 938.667h447.16v-352h-447.16v352zM575.16 234.667h448.84v-320h-448.84v320zM575.16 938.667h448v-576h-448v576z" />
<glyph unicode="&#xe903;" glyph-name="svg-line" d="M48 98.667c-26.498 0.016-47.972 21.5-47.972 48 0 17.335 9.189 32.524 22.962 40.961l0.21 0.119 928 560c7.304 4.723 16.229 7.53 25.811 7.53 26.51 0 48-21.49 48-48 0-17.758-9.644-33.265-23.98-41.567l-0.231-0.123-928-560c-7.072-4.341-15.635-6.914-24.798-6.92h-0.002z" />
<glyph unicode="&#xe904;" glyph-name="svg-linear-gradient" d="M256 938.667h128v-1024h-128v1024zM416 938.667h96v-1024h-96v1024zM560 938.667h80v-1024h-80v1024zM704 938.667h64v-1024h-64v1024z" />
<glyph unicode="&#xe905;" glyph-name="svg-path" d="M809.8 39.387c-60 0-130.080 37-198.44 73.12-52 27.52-111 58.68-142.64 58.68h-0.36c-24.84 0-73.24-26.48-116-49.68-78.080-42.44-158.84-86.32-221.4-52-76.52 42.44-108.6 173.96-122.040 276.84-12.92 100.32-14.12 233.36 13.2 304.080 12 31.040 41.56 67.6 114.88 65.44 39.68-1.2 85.92-13.2 130.68-25.2 52.68-13.68 112.32-29.36 145.52-21.36s82.12 30.96 134.080 55.24c138 64.48 294.4 137.6 377.76 48v0c91.040-98.040 112-287.64 92-432-10.84-79.28-44.4-221.76-147.16-284.88-16.635-10.232-36.786-16.293-58.353-16.293-0.607 0-1.213 0.005-1.818 0.014l0.091-0.001zM468.68 259.067c53.48 0 116.76-33.44 183.76-68.84 39.24-20.72 79.8-42.16 114.040-53.96 38.84-13.36 53.2-8.6 57.56-5.92 51.72 31.76 91.4 114.72 106.040 221.88 19.72 144.2-9.48 295.72-69.44 360.32v0c-39.8 42.84-182.040-23.64-276-67.64-56-26.2-109-50.96-150.6-61-54.76-13.24-122.84 4.64-188.68 21.88-52.88 13.88-132.8 34.84-141.36 12.88-15.28-39.52-23.28-144.44-8-261 16.36-125.36 50.68-196.36 77.4-211.080 1.72-0.96 12-5.080 43.56 6.4 28 10.080 61.24 28 93.4 45.64 56.8 30.88 110.44 60 157.28 60.36z" />
<glyph unicode="&#xe906;" glyph-name="svg-polygon" d="M740.8-17.653h-457.6c-0.009 0-0.020 0-0.031 0-17.673 0-33.115 9.551-41.447 23.773l-0.123 0.227-228.8 396.32c-4.043 6.885-6.431 15.163-6.431 24s2.388 17.115 6.553 24.227l-0.123-0.227 228.8 396.32c8.454 14.449 23.896 24 41.569 24 0.011 0 0.022 0 0.032 0h457.598c0.009 0 0.020 0 0.031 0 17.673 0 33.115-9.551 41.447-23.773l0.123-0.227 228.8-396.32c4.043-6.885 6.431-15.163 6.431-24s-2.388-17.115-6.553-24.227l0.123 0.227-228.8-396.32c-8.454-14.449-23.896-24-41.569-24-0.011 0-0.022 0-0.032 0h0.002zM310.92 78.347h402.16l201.12 348.32-201.12 348.32h-402.16l-201.12-348.32z" />
<glyph unicode="&#xe907;" glyph-name="svg-polyline" d="M48 98.667c-26.503 0.010-47.983 21.496-47.983 48 0 11.037 3.725 21.203 9.986 29.311l-0.083-0.111 288 376c8.86 11.482 22.625 18.806 38.101 18.806 3.391 0 6.699-0.352 9.891-1.020l-0.312 0.055 328.48-67.040 269.92 240c8.466 7.552 19.694 12.166 32 12.166 26.602 0 48.166-21.565 48.166-48.166 0-14.296-6.228-27.137-16.119-35.958l-0.048-0.042-288-256c-8.438-7.527-19.628-12.127-31.893-12.127-3.394 0-6.705 0.352-9.9 1.022l0.312-0.055-322.52 66.12-269.72-352c-8.857-11.572-22.675-18.96-38.219-18.96-0.022 0-0.043 0-0.064 0h0.003z" />
<glyph unicode="&#xe908;" glyph-name="svg-radial-gradient" d="M384 426.667c0 70.692-57.308 128-128 128v0-256c70.692 0 128 57.308 128 128v0zM512 426.667c-0.159 141.321-114.679 255.841-255.985 256h-0.015v-96c88.366 0 160-71.634 160-160s-71.634-160-160-160v0-96c141.321 0.159 255.841 114.679 256 255.985v0.015zM640 426.667c-0.25 211.976-172.023 383.75-383.976 384h-0.024v-80c167.895 0 304-136.105 304-304s-136.105-304-304-304v0-80c211.976 0.25 383.75 172.023 384 383.976v0.024zM256 938.667v-64c247.424 0 448-200.576 448-448s-200.576-448-448-448v0-64c282.77 0 512 229.23 512 512s-229.23 512-512 512v0z" />
<glyph unicode="&#xe909;" glyph-name="svg-rectangle" d="M912 106.667h-800c-61.856 0-112 50.144-112 112v0 416c0 61.856 50.144 112 112 112v0h800c61.856 0 112-50.144 112-112v0-416c0-61.856-50.144-112-112-112v0zM112 650.667c-8.791-0.111-15.889-7.209-16-15.989v-416.011c0.111-8.791 7.209-15.889 15.989-16h800.011c8.791 0.111 15.889 7.209 16 15.989v416.011c-0.111 8.791-7.209 15.889-15.989 16h-0.011z" />
<glyph unicode="&#xe90a;" glyph-name="edit" d="M925.332 662.222l-86.668-86.668-177.777 177.777 86.668 86.668q13.332 13.332 33.332 13.332t33.332-13.332l111.11-111.11q13.332-13.332 13.332-33.332t-13.332-33.332zM85.332 177.778l524.445 524.445 177.777-177.777-524.445-524.445h-177.777v177.777z" />
<glyph unicode="&#xe90b;" glyph-name="arrow-down" d="M939.332 426.667l-427.332-427.332-427.332 427.332 77.468 74.972 297.384-297.384v649.748h104.96v-649.748l299.884 297.384z" />
<glyph unicode="&#xe90c;" glyph-name="pause" d="M610.314 767.333h194.34v-681.334h-194.34v681.334zM219.346 86.001v681.334h194.34v-681.334h-194.34z" />
<glyph unicode="&#xe90d;" glyph-name="play" d="M317.66 767.333l535.006-340.666-535.006-340.666v681.334z" />
<glyph unicode="&#xe90e;" glyph-name="question-mark-circle" d="M642 458.667q40 40 40 96 0 70-50 120t-120 50-120-50-50-120h84q0 34 26 60t60 26 60-26 26-60-26-60l-52-54q-50-54-50-120v-22h84q0 66 50 120zM554 128.667v84h-84v-84h84zM512 852.667q176 0 301-125t125-301-125-301-301-125-301 125-125 301 125 301 301 125z" />
<glyph unicode="&#xe90f;" glyph-name="radio-button-off" d="M512 84.667q140 0 241 101t101 241-101 241-241 101-241-101-101-241 101-241 241-101zM512 852.667q176 0 301-125t125-301-125-301-301-125-301 125-125 301 125 301 301 125z" />
<glyph unicode="&#xe910;" glyph-name="radio-button-on" d="M512 84.667q140 0 241 101t101 241-101 241-241 101-241-101-101-241 101-241 241-101zM512 852.667q176 0 301-125t125-301-125-301-301-125-301 125-125 301 125 301 301 125zM512 640.667q88 0 151-63t63-151-63-151-151-63-151 63-63 151 63 151 151 63z" />
<glyph unicode="&#xe911;" glyph-name="repeat-off" d="M727.168 479.209v160.126l212.666-212.666-212.666-212.666v160.126h-643.004v105.082h643.004z" />
<glyph unicode="&#xe912;" glyph-name="repeat-on" d="M747.434 191.233v189.226h92.414v-281.64h-563.28v-140.82l-187.026 187.026 187.026 187.026v-140.82h470.866zM276.566 662.101v-189.226h-92.414v281.64h563.28v140.82l187.026-187.026-187.026-187.026v140.82h-470.866z" />
<glyph unicode="&#xe913;" glyph-name="visibility-off" d="M506 554.667h6q52 0 90-38t38-90v-8zM322 520.667q-24-48-24-94 0-88 63-151t151-63q46 0 94 24l-66 66q-16-4-28-4-52 0-90 38t-38 90q0 12 4 28zM86 756.667l54 54 756-756-54-54q-10 10-63 62t-81 80q-86-36-186-36-158 0-286 88t-184 232q22 52 69 115t91 97q-24 24-67 68t-49 50zM512 640.667q-40 0-78-16l-92 92q78 30 170 30 158 0 285-88t183-232q-48-118-146-202l-124 124q16 38 16 78 0 88-63 151t-151 63z" />
<glyph unicode="&#xe914;" glyph-name="visibility-on" d="M512 554.667q52 0 90-38t38-90-38-90-90-38-90 38-38 90 38 90 90 38zM512 212.667q88 0 151 63t63 151-63 151-151 63-151-63-63-151 63-151 151-63zM512 746.667q158 0 286-88t184-232q-56-144-184-232t-286-88-286 88-184 232q56 144 184 232t286 88z" />
<glyph unicode="&#xe915;" glyph-name="path" d="M157.771 151.83c-33.713 0.060-61.018 27.405-61.018 61.125 0 8.021 1.545 15.684 4.354 22.702l-0.146-0.412c4.024 10.252 100.578 251.672 251.412 320.291 29.849 13.595 58.757 20.374 85.944 20.374 55.578 0 93.797-27.806 121.699-48.115 23.491-17.099 36.566-25.955 54.247-25.955 6.181 0.082 12.128 0.94 17.79 2.483l-0.496-0.115c61.84 15.443 145.546 112.484 183.83 169.975 11.098 16.546 29.731 27.29 50.873 27.29 33.724 0 61.064-27.34 61.064-61.064 0-12.582-3.807-24.277-10.329-33.994l0.138 0.22c-24.451-35.497-49.135-66.476-75.759-95.652l0.618 0.688c-63.267-69.399-124.101-111.772-180.812-125.949-14.275-3.817-30.682-6.059-47.596-6.164h-0.064c-57.296 0-96.62 28.617-125.333 49.511-23.101 16.805-34.879 24.853-50.093 24.853-9.441 0-20.959-3.244-35.17-9.733-87.6-39.81-167.316-200.635-188.178-253.845-9.118-22.744-30.98-38.512-56.524-38.512-0.158 0-0.316 0.001-0.471 0.002h0.024z" />
<glyph unicode="&#xe916;" glyph-name="keyframe" d="M512-0.001c-0.050 0-0.11 0-0.17 0-16.425 0-31.29 6.676-42.029 17.466l-367.003 367.003c-10.794 10.803-17.47 25.722-17.47 42.2s6.676 31.397 17.47 42.2l367 366.968c10.794 10.81 25.716 17.499 42.2 17.499s31.406-6.69 42.199-17.498l367.001-366.969c10.794-10.803 17.47-25.722 17.47-42.2s-6.676-31.397-17.47-42.2l-367-366.968c-10.73-10.81-25.592-17.5-42.021-17.5-0.064 0-0.127 0-0.19 0h0.010zM512 144.135l282.568 282.532-282.568 282.532-282.568-282.532z" />
<glyph unicode="&#xe917;" glyph-name="exclamation-mark-triangle" d="M549.576 349.727v153.88h-75.15v-153.88h75.15zM549.576 197.637v76.94h-75.15v-76.94h75.15zM91.514 83.121l420.486 724.666 420.486-724.666h-840.972z" />
<glyph unicode="&#xe918;" glyph-name="redo" d="M786 486.667l152 154v-384h-384l156 154q-96 80-220 80-102 0-197-68t-127-166l-100 32q44 136 161 222t263 86q170 0 296-110z" />
<glyph unicode="&#xe919;" glyph-name="arrow-up" d="M84.668 426.667l427.332 427.332 427.332-427.332-77.468-74.972-297.384 297.384v-649.748h-104.96v649.748l-299.884-297.384z" />
<glyph unicode="&#xe91a;" glyph-name="table-insert-row-after" d="M938.667 533.334c0-47.067-38.267-85.333-85.333-85.333v0h-682.667c-47.067 0-85.333 38.267-85.333 85.333v0 298.667h85.333v-85.333h170.667v85.333h85.333v-85.333h170.667v85.333h85.333v-85.333h170.667v85.333h85.333v-298.667zM170.667 533.334h170.667v128h-170.667v-128zM426.667 533.334h170.667v128h-170.667v-128zM853.333 533.334v128h-170.667v-128h170.667zM469.333 362.667h85.333v-128h128v-85.333h-128v-128h-85.333v128h-128v85.333h128v128z" />
<glyph unicode="&#xe91b;" glyph-name="tune" d="M654.222 568.889v284.444h95.556v-95.556h188.888v-93.334h-188.888v-95.556h-95.556zM938.666 380.001h-473.334v93.334h473.334v-93.334zM274.222 568.889h95.556v-284.444h-95.556v95.556h-188.888v93.334h188.888v95.556zM558.666 0.001h-93.334v284.444h93.334v-95.556h380v-93.334h-380v-95.556zM85.334 757.779h473.334v-93.334h-473.334v93.334zM85.334 188.889h284.444v-93.334h-284.444v93.334z" />
<glyph unicode="&#xe91c;" glyph-name="undo" d="M534 596.667q146 0 262-86t162-222l-100-32q-34 104-123 169t-201 65q-124 0-220-80l156-154h-384v384l152-154q126 110 296 110z" />
<glyph unicode="&#xe91d;" glyph-name="vertical-dots" d="M512 256.667q34 0 60-26t26-60-26-60-60-26-60 26-26 60 26 60 60 26zM512 512.667q34 0 60-26t26-60-26-60-60-26-60 26-26 60 26 60 60 26zM512 596.667q-34 0-60 26t-26 60 26 60 60 26 60-26 26-60-26-60-60-26z" />
<glyph unicode="&#xe91e;" glyph-name="delete" d="M662 768.667h148v-86h-596v86h148l44 42h212zM342 554.667v-426h340v426h-340zM256 128.667v512h512v-512q0-34-26-60t-60-26h-340q-34 0-60 26t-26 60z" />
<glyph unicode="&#xe91f;" glyph-name="collapse" d="M757.333 288h-320v106.667h320v-106.667zM938.667 576c0 0 0 0 0 0v21.333c0 46.933-38.4 85.333-85.333 85.333h-512c-46.933 0-85.333-38.4-85.333-85.333v-21.2c0 0 0-0.133 0-0.133v-469.333c0 0 0-0.133 0-0.133v-21.2c0-46.933 38.4-85.333 85.333-85.333h21.067c0.133 0 0.133 0 0.267 0h469.333c0.133 0 0.133 0 0.267 0h21.067c46.933 0 85.333 38.4 85.333 85.333v21.333c0 0 0 0 0 0v469.333zM341.333 597.334h512v-512h-512v512zM170.667 298.667v469.333h597.333v85.333h-576c0 0 0 0 0 0h-21.333c-46.933 0-85.333-38.4-85.333-85.333v-21.333c0 0 0 0 0 0v-576h85.333v128z" />
<glyph unicode="&#xe920;" glyph-name="easing" horiz-adv-x="1032" d="M889.332 689.999c31.295 0 56.668 25.37 56.668 56.668s-25.37 56.668-56.668 56.668v0c-124.432 0-220.432-38.732-293.332-118.368-61.732-67.332-97.568-153.332-132.2-236.5-66.468-159.3-118.9-285.132-321.132-285.132-31.295 0-56.668-25.37-56.668-56.668s25.37-56.668 56.668-56.668v0c124.432 0 220.432 38.732 293.332 118.368 61.732 67.332 97.568 153.332 132.2 236.668 66.468 159.132 118.9 284.968 321.132 284.968zM209.332 613.335c51.91 0.074 96.105 33.036 112.869 79.164l0.267 0.836h46.868c22.090 0 40 17.91 40 40s-17.91 40-40 40v0h-46.868c-16.97 47.008-61.201 80-113.137 80-66.273 0-120-53.727-120-120s53.727-120 120-120c0.002 0 0.003 0 0.005 0v0zM209.332 773.335c22.090 0 40-17.91 40-40s-17.91-40-40-40c-22.090 0-40 17.91-40 40v0c0 22.090 17.91 40 40 40v0zM822.668 239.999c-51.91-0.074-96.105-33.036-112.869-79.164l-0.267-0.836h-46.868c-22.090 0-40-17.91-40-40s17.91-40 40-40v0h46.868c16.97-47.008 61.201-80 113.137-80 66.273 0 120 53.727 120 120s-53.727 120-120 120c-0.002 0-0.003 0-0.005 0v0zM822.668 79.999c-22.090 0-40 17.91-40 40s17.91 40 40 40c22.090 0 40-17.91 40-40v0c0-22.090-17.91-40-40-40v0zM489.332 693.335h53.332c22.090 0 40 17.91 40 40s-17.91 40-40 40v0h-53.332c-22.090 0-40-17.91-40-40s17.91-40 40-40v0zM542.668 159.999h-53.332c-22.090 0-40-17.91-40-40s17.91-40 40-40v0h53.332c22.090 0 40 17.91 40 40s-17.91 40-40 40v0z" />
<glyph unicode="&#xe921;" glyph-name="expand" d="M544 181.334h106.667v106.667h106.667v106.667h-106.667v106.667h-106.667v-106.667h-106.667v-106.667h106.667zM938.667 576c0 0 0 0 0 0v21.333c0 46.933-38.4 85.333-85.333 85.333h-512c-46.933 0-85.333-38.4-85.333-85.333v-21.2c0 0 0-0.133 0-0.133v-469.333c0 0 0-0.133 0-0.133v-21.2c0-46.933 38.4-85.333 85.333-85.333h21.067c0.133 0 0.133 0 0.267 0h469.333c0.133 0 0.133 0 0.267 0h21.067c46.933 0 85.333 38.4 85.333 85.333v21.333c0 0 0 0 0 0v469.333zM341.333 597.334h512v-512h-512v512zM170.667 298.667v469.333h597.333v85.333h-576c0 0 0 0 0 0h-21.333c-46.933 0-85.333-38.4-85.333-85.333v-21.333c0 0 0 0 0 0v-576h85.333v128z" />
<glyph unicode="&#xe922;" glyph-name="chevron-down" d="M85.334 612.475c-0.035 7.326 1.393 14.582 4.203 21.346s6.941 12.9 12.147 18.048c10.452 10.438 24.626 16.303 39.394 16.303s28.942-5.864 39.39-16.303l332.23-332.227 332.228 332.227c10.567 9.847 24.544 15.209 38.985 14.95s28.218-6.105 38.431-16.317c10.212-10.212 16.064-23.99 16.317-38.431s-5.107-28.416-14.951-38.985l-371.618-371.617c-10.45-10.438-24.619-16.307-39.39-16.307s-28.939 5.868-39.39 16.307l-371.621 371.617c-5.206 5.147-9.337 11.282-12.147 18.048s-4.237 14.022-4.203 21.346z" />
<glyph unicode="&#xe923;" glyph-name="chevron-right" d="M326.192 0.001c-7.326-0.035-14.582 1.393-21.346 4.203s-12.9 6.941-18.048 12.147c-10.438 10.452-16.303 24.626-16.303 39.394s5.864 28.942 16.303 39.39l332.227 332.23-332.227 332.228c-9.847 10.567-15.209 24.544-14.95 38.985s6.105 28.218 16.317 38.431c10.212 10.212 23.99 16.064 38.431 16.317s28.416-5.107 38.985-14.951l371.617-371.618c10.438-10.45 16.307-24.619 16.307-39.39s-5.868-28.939-16.307-39.39l-371.617-371.621c-5.147-5.206-11.282-9.337-18.048-12.147s-14.022-4.237-21.346-4.203z" />
<glyph unicode="&#xe924;" glyph-name="table-insert-row-before" d="M938.667 21.334h-85.333v85.333h-170.667v-85.333h-85.333v85.333h-170.667v-85.333h-85.333v85.333h-170.667v-85.333h-85.333v298.667c0 47.067 38.267 85.333 85.333 85.333h682.667c47.067 0 85.333-38.267 85.333-85.333v-298.667zM170.667 192h170.667v128h-170.667v-128zM426.667 192h170.667v128h-170.667v-128zM682.667 320v-128h170.667v128h-170.667zM469.333 618.667h-128v85.333h128v128h85.333v-128h128v-85.333h-128v-128h-85.333v128z" />
<glyph unicode="&#xe925;" glyph-name="content-copy" d="M812.111 85.334v512h-426.777v-512h426.777zM873.409 657.968c15.219-14.917 23.424-33.747 23.704-53.959l0.027-525.384c-0.268-20.185-8.332-39.329-23.625-54.688-15.364-15.291-34.54-23.357-54.725-23.625h-440.148c-20.185 0.268-39.329 8.332-54.688 23.625-15.291 15.361-23.357 34.527-23.625 54.712l-0.027 525.385c0.28 20.212 8.511 39.041 23.732 53.959 15.445 14.597 34.468 22.436 54.619 22.689h440.145c20.152-0.253 39.168-8.117 54.612-22.715zM212 768v-533.333h-83.352l0.007 540.035c0.253 20.152 8.117 39.168 22.715 54.612 14.917 15.22 33.76 23.424 53.972 23.704h455.992v-85.017h-449.333z" />
<glyph unicode="&#xe926;" glyph-name="content-paste" d="M660 704v-106.667h-400v106.667h-60v-512h100v-85.333l-104.189 1.109c-19.392 0.105-37 7.388-51.827 21.576-14.777 14.276-22.375 31.665-22.487 51.091v535.228c0.112 19.424 7.709 36.807 22.487 51.087 14.827 14.193 32.449 21.475 51.848 21.576l162.835 1c8.008 20.657 20.508 37.547 38.573 51.135 18.145 13.567 39.521 16.533 63.268 16.533 23.743 0 45.121-2.971 63.268-16.533 18.067-13.583 30.565-30.473 38.575-51.135l162.149-1c19.4-0.101 37.017-7.388 51.844-21.576 14.777-14.276 22.375-31.665 22.487-51.091l1.169-139.667h-80v128h-60zM460.512 784c-9.504 0-16.817-2.921-23.115-9.219s-9.219-13.611-9.219-23.115c0-9.504 2.921-16.817 9.219-23.115s13.611-9.219 23.115-9.219c9.504 0 16.817 2.921 23.115 9.219s9.219 13.611 9.219 23.115c0 9.504-2.921 16.817-9.219 23.115s-13.611 9.219-23.115 9.219zM820 405.334h-340v-320h340v320zM825.505 490c19.4-0.101 37.017-7.388 51.844-21.576 14.777-14.276 22.375-31.671 22.487-51.096l-0.555-342.999c-0.109-19.417-7.656-37.088-22.449-51.881s-32.468-22.34-51.885-22.449h-349.337c-19.416 0.109-37.088 7.656-51.881 22.449s-22.34 32.472-22.449 51.891l0.555 342.999c0.112 19.425 7.709 36.807 22.487 51.087 14.827 14.193 32.449 21.475 51.848 21.576h349.337z" />
<glyph unicode="&#xe927;" glyph-name="duration" d="M298.667 298.667v-106.667h426.667v106.667l128-149.333-127.997-149.335-0.003 106.668h-426.667v-106.667l-128 149.333 128 149.333zM170.667-0l-85.331-0.001-0.003 298.668h85.333v-298.667zM853.333 298.667h85.333v-298.667h-85.333v298.667zM760.891 604.444c0-137.6-111.645-248.891-248.891-248.891-137.457 0-248.891 111.429-248.891 248.891 0 137.245 111.645 248.891 248.891 248.891s248.891-111.645 248.891-248.891zM339.555 604.444c0-95.252 77.191-172.445 172.445-172.445 94.932 0 172.445 77.155 172.445 172.445s-77.511 172.445-172.445 172.445c-95.252 0-172.445-77.189-172.445-172.445zM529.777 711.112v-100.268l86.755-50.132-26.668-46.223-113.423 65.423v131.2h53.336z" />
<glyph unicode="&#xe928;" glyph-name="ease-in-back" d="M440.213-11.52c-64.571 1.71-126.137 11.608-184.636 28.694l5.116-1.28c-17.707 4.48-36.48 9.813-54.613 14.933-55.573 15.68-113.067 32-164.693 32.96-23.349 0.36-42.138 19.373-42.138 42.773 0 23.626 19.152 42.778 42.778 42.778 0.225 0 0.45-0.002 0.674-0.005h-0.034c62.613-1.28 125.44-19.093 186.133-36.267 18.453-5.12 35.84-10.027 52.693-14.4 182.507-47.253 290.667-39.36 412.16 133.653 74.667 106.133 119.68 223.253 167.573 347.307l14.187 36.693c22.827 58.88 39.36 119.040 64 216.427 4.533 19.067 21.418 33.029 41.564 33.029 23.564 0 42.667-19.103 42.667-42.667 0-3.932-0.532-7.74-1.528-11.356l0.070 0.3c-25.173-100.8-42.667-163.52-66.88-226.667l-14.187-36.48c-47.573-123.413-96.747-250.987-177.28-365.653-101.333-144.64-203.093-194.773-323.627-194.773z" />
<glyph unicode="&#xe929;" glyph-name="ease-in-bounce" d="M42.667 26.24c-0.109-0.001-0.238-0.002-0.367-0.002-23.564 0-42.667 19.103-42.667 42.667 0 12.723 5.569 24.145 14.402 31.962l0.045 0.039c33.92 30.507 71.787 20.48 92.16 15.040l10.667-2.56c64.96 53.333 125.973 39.253 166.613 18.56 5.227 9.067 10.667 17.707 16.213 26.347 16.153 26.126 32.86 48.738 51.218 69.876l-0.552-0.649 1.067 1.173c70.4 75.627 145.707 78.72 224 9.28 17.11-15.583 32.273-32.778 45.421-51.491l0.659-0.989c2.667 8.64 5.227 17.28 7.68 25.6 1.92 6.613 3.733 13.013 5.547 19.093l8.747 30.933c40 142.4 81.493 289.493 160 423.253l6.293 10.667c32 54.933 74.667 130.24 171.413 132.267 0.254 0.005 0.553 0.009 0.853 0.009 23.569 0 42.675-19.106 42.675-42.675 0-23.269-18.623-42.188-41.777-42.666l-0.045-0.001c-44.907-0.96-67.413-34.453-99.2-89.493l-6.507-11.413c-73.387-124.373-111.573-259.84-151.893-403.307l-8.96-32-5.547-18.987c-10.667-38.187-23.68-81.387-44.907-116.693-7.619-12.363-21.084-20.48-36.445-20.48-0.050 0-0.1 0-0.15 0h0.008c-15.393 0.011-28.878 8.172-36.374 20.401l-0.106 0.186-7.893 13.12c-19.733 33.067-40.213 67.307-66.453 90.453-42.667 38.187-66.347 37.547-104.32-2.987-15.003-17.186-29.069-36.138-41.581-56.162l-1.086-1.864c-0.291-0.346-0.573-0.729-0.828-1.13l-0.026-0.043c-9.387-14.293-18.24-29.973-28.373-48.107l-7.253-12.8c-7.467-13.040-21.299-21.685-37.151-21.685-9.546 0-18.36 3.135-25.469 8.432l0.113-0.081c-51.307 37.973-76.16 32-104.107 8-29.76-26.453-65.28-17.173-84.053-12.16-3.803 1.18-8.55 2.293-13.399 3.106l-0.681 0.094c-7.389-6.3-17.049-10.133-27.605-10.133-0.008 0-0.015 0-0.023 0h0.001z" />
<glyph unicode="&#xe92a;" glyph-name="ease-in-circ" d="M56.96 26.134h-15.147c-23.564 0-42.667 19.103-42.667 42.667s19.103 42.667 42.667 42.667v0h0.853c234.667-3.093 452.8 64 629.333 192.96 123.093 89.707 266.667 269.227 266.667 480.107 0 23.564 19.103 42.667 42.667 42.667s42.667-19.103 42.667-42.667v0c0-242.773-162.027-448-300.8-549.013-188.587-137.173-418.453-209.387-666.24-209.387z" />
<glyph unicode="&#xe92b;" glyph-name="ease-in-cubic" d="M137.173 25.6c-16.747 0-33.92 0-50.88 0-15.36 0-30.293 0-44.053 0-23.564 0-42.667 19.103-42.667 42.667s19.103 42.667 42.667 42.667v0c14.187 0 29.653 0 45.547 0 32 0 65.493-1.067 92.8 0 222.187 12.693 390.507 97.92 514.347 260.8 94.464 124.248 177.163 265.753 241.768 416.841l4.952 13.026c6.698 15.385 21.769 25.946 39.307 25.946 23.608 0 42.746-19.138 42.746-42.746 0-6.071-1.265-11.846-3.547-17.076l0.107 0.276c-72.602-171.033-158.906-318.504-261.234-453.132l3.741 5.132c-139.84-182.827-328.64-279.147-577.28-293.227-14.827-0.853-31.573-1.173-48.32-1.173z" />
<glyph unicode="&#xe92c;" glyph-name="ease-in-elastic" d="M829.333-85.333c-0.013 0-0.029 0-0.045 0-10.842 0-20.74 4.044-28.266 10.706l0.045-0.039c-23.573 21.333-33.067 54.080-43.733 86.187-2.133 6.933-4.267 13.973-6.613 21.333l-0.64 2.453c-8.96 33.067-16 65.067-22.827 96-8.747 39.467-16.96 76.693-28.587 115.627v1.28c-6.293-7.253-12.267-15.573-18.667-24.427-11.824-17.358-24.492-32.532-38.48-46.374l-0.026-0.026c-17.493-16.533-71.36-67.733-144.64-14.507-20.053 14.080-45.973 19.093-80.853 15.253-54.053-5.292-116.846-8.311-180.344-8.311-20.227 0-40.382 0.306-60.462 0.914l2.94-0.071c-37.333 0-75.947 0.853-112.747 0-0.206-0.004-0.45-0.006-0.693-0.006-23.567 0-42.672 19.105-42.672 42.672 0 23.323 18.712 42.277 41.942 42.666h0.037c38.187 0.747 77.44 0 115.307 0 17.045-0.547 37.089-0.859 57.206-0.859 59.773 0 118.902 2.752 177.269 8.137l-7.488-0.558c57.067 6.293 103.253-4.053 141.12-31.36 13.12-9.6 15.893-11.627 35.947 7.467 10.088 10.199 19.249 21.358 27.319 33.314l0.521 0.819c16.96 23.68 36.267 50.453 68.907 68.587 5.966 3.371 13.101 5.358 20.7 5.358 5.967 0 11.648-1.225 16.805-3.437l-0.278 0.106c31.326-13.568 54.801-40.191 63.815-72.817l0.185-0.783c12.373-41.6 21.333-81.92 29.867-120.96 5.013-22.507 10.027-45.547 15.787-68.8 24.64 162.027 41.28 335.787 57.387 504 10.667 105.28 20.48 214.293 32.747 316.8 3.239 20.63 20.887 36.224 42.177 36.224 23.564 0 42.667-19.103 42.667-42.667 0-1.262-0.055-2.511-0.162-3.745l0.011 0.16c-12.053-101.653-22.4-210.027-32-314.88-17.6-182.933-35.627-372.053-64-547.307-0.64-3.84-1.173-7.68-1.707-11.52-3.733-27.84-9.387-69.76-51.307-96-6.466-4.152-14.357-6.618-22.824-6.618-0.226 0-0.451 0.002-0.676 0.005h0.034z" />
<glyph unicode="&#xe92d;" glyph-name="ease-in-expo" d="M177.813 19.627c-46.827 0-92.48 0-135.787 1.28-23.545 0.181-42.561 19.31-42.561 42.88 0 23.683 19.199 42.881 42.881 42.881 0.113 0 0.225 0 0.337-0.001h0.623c135.573-2.24 292.48-3.307 440.96 11.52 130.607 11.688 240.962 88.547 299.281 197.45l0.986 2.016c90.133 162.347 135.467 371.093 154.773 480.747 3.555 20.276 21.030 35.489 42.059 35.489 23.564 0 42.667-19.103 42.667-42.667 0-2.666-0.244-5.274-0.712-7.805l0.040 0.263c-20.693-114.987-68.373-333.653-164.053-507.52-77.867-141.547-204.48-225.707-366.187-243.307-105.067-10.453-213.333-13.227-315.307-13.227z" />
<glyph unicode="&#xe92e;" glyph-name="ease-in-out-back" d="M275.093-47.36c-39.083 1.276-75.596 11.063-108.136 27.555l1.469-0.675-16.107 7.467c-36.693 17.067-78.4 36.48-113.813 39.893-21.861 2.138-38.805 20.424-38.805 42.667 0 23.67 19.189 42.859 42.859 42.859 1.427 0 2.838-0.070 4.23-0.206l-0.176 0.014c50.133-4.8 98.773-27.413 141.76-47.467l15.573-7.253c89.707-41.067 118.080-13.867 157.547 53.333 50.987 86.72 75.52 181.333 101.44 282.453 3.52 13.76 7.040 27.52 10.667 41.173s7.253 28.053 10.667 42.027c26.347 101.013 53.333 206.187 110.293 302.187 64 108.267 128 158.187 266.667 92.587 44.16-21.333 84.053-38.613 126.187-44.16 21.008-2.888 37.016-20.721 37.016-42.293 0-23.566-19.104-42.669-42.669-42.669-1.994 0-3.955 0.137-5.876 0.401l0.223-0.025c-54.080 7.253-102.507 28.48-151.36 51.52-85.333 40.747-107.627 24.107-156.16-58.667-50.987-86.187-74.667-180.8-101.013-280.96-3.627-14.187-7.253-28.267-10.667-42.667l-10.667-40.747c-26.24-101.973-53.333-207.36-110.4-304.427-35.413-58.667-81.28-113.92-160.747-113.92z" />
<glyph unicode="&#xe92f;" glyph-name="ease-in-out-bounce" d="M168.427 23.36c-11.631 0.111-22.131 4.859-29.76 12.48v0c-7.787 7.787-10.667 9.067-39.787-0.64-16.938-6.753-36.568-10.67-57.113-10.67-0.359 0-0.717 0.001-1.076 0.004h0.055c-22.613 1.224-40.485 19.858-40.485 42.667 0 23.597 19.129 42.725 42.725 42.725 0.788 0 1.571-0.021 2.348-0.063l-0.108 0.005c9.85 0.846 18.937 3.198 27.339 6.831l-0.566-0.218c21.333 6.827 51.2 16.96 83.52 7.040q4.16 6.080 8.64 12.16c24.107 32 48.747 61.653 85.333 64 27.413 1.387 49.813-12.8 68.587-30.293 6.72 18.773 13.653 37.653 20.48 56.213 11.2 30.293 21.333 58.88 31.147 86.4 17.387 50.56 43.627 127.147 117.333 147.2 36.907 9.92 52.693 33.173 68.907 72.64 19.413 46.72 36.587 102.827 53.333 157.013 9.067 29.76 17.6 57.707 26.56 84.373 5.845 17.057 21.742 29.1 40.452 29.1 15.44 0 28.964-8.201 36.455-20.485l0.107-0.188c24.32-40.64 37.867-54.613 43.947-59.413 8.976 10.005 17.498 20.933 25.243 32.427l0.677 1.066c13.382 20.759 28.417 38.744 45.394 54.685l0.152 0.142c7.399 6.333 17.084 10.188 27.669 10.188 13.219 0 25.035-6.012 32.861-15.451l0.057-0.071c8.029 2.884 14.576 5.726 20.917 8.918l-1.077-0.491c24.96 11.52 62.613 28.907 97.28 4.373 11.531-7.759 19.017-20.762 19.017-35.512 0-23.564-19.103-42.667-42.667-42.667-6.93 0-13.474 1.652-19.26 4.584l0.243-0.112c-5.12-1.707-13.333-5.44-19.2-8.213-17.387-8-50.453-23.253-81.6-14.72-3.52-4.8-6.933-9.707-10.667-14.613-23.573-33.707-50.347-71.893-94.080-71.893-26.646 0.793-50.347 12.764-66.684 31.363l-0.089 0.104c0-0.853 0-1.6-0.747-2.347-17.173-56.213-34.987-114.347-55.893-164.8s-51.093-102.293-125.653-122.347c-27.84-7.573-43.947-48.107-59.2-92.587-9.707-28.373-21.333-58.773-32-88.107-14.613-39.68-29.653-80.747-41.813-118.4-5.708-17.297-21.724-29.56-40.604-29.56-13.87 0-26.194 6.618-33.986 16.868l-0.077 0.105c-1.707 2.027-9.707 9.6-14.507 14.080-8.64 8.213-14.4 13.653-18.56 18.453-4.524 5.047-9.335 9.621-14.487 13.791l-0.233 0.183c-7.418-8.016-14.424-16.716-20.813-25.878l-0.52-0.788c-5.867-7.787-11.413-16.213-17.813-26.027-3.413-5.227-6.933-10.667-10.667-16.32-7.005-10.321-18.194-17.351-31.074-18.652l-0.18-0.015z" />
<glyph unicode="&#xe930;" glyph-name="ease-in-out-circ" d="M56.64 25.92c-5.76 0-11.52 0-16.533 0-22.479 1.39-40.183 19.961-40.183 42.667 0 23.607 19.137 42.743 42.743 42.743 0.901 0 1.795-0.028 2.682-0.083l-0.122 0.006c10.667-0.64 29.44 0 43.413 0.747 203.413 25.92 313.92 98.24 370.027 242.027 6.763 19.886 10.667 42.794 10.667 66.613 0 0.019 0 0.037 0 0.056v-0.003c0.691 17.63 2.258 34.152 4.68 50.395l-0.307-2.501c38.293 244.8 326.293 358.827 507.627 358.827 23.564 0 42.667-19.103 42.667-42.667s-19.103-42.667-42.667-42.667v0c-158.4 0-393.92-99.733-424-286.933-2.027-12.267-2.667-25.387-3.52-39.253-0.261-33.322-6.14-65.187-16.734-94.811l0.628 2.011c-86.613-224-280.64-275.84-439.893-295.68h-2.667c-4.267-0.427-21.76-1.493-38.507-1.493z" />
<glyph unicode="&#xe931;" glyph-name="ease-in-out-cubic" d="M42.667 26.134c-23.564 0-42.667 19.103-42.667 42.667s19.103 42.667 42.667 42.667v0c188.48 0 276.053 45.333 360.213 186.773 23.1 39.38 47.713 87.674 69.749 137.364l3.851 9.729c14.507 32 29.547 64.96 46.080 97.387 98.027 192 243.627 282.453 458.667 284.48v0c23.564 0 42.667-19.103 42.667-42.667s-19.103-42.667-42.667-42.667v0c-184.427-1.813-298.667-72.96-383.147-237.867-15.68-30.72-30.293-62.933-44.48-94.080-27.381-62.716-53.454-113.738-82.084-163.091l4.111 7.678c-99.84-169.173-213.333-228.373-432.96-228.373z" />
<glyph unicode="&#xe932;" glyph-name="ease-in-out-elastic" d="M415.147-57.92c-6.86 0.037-13.317 1.729-19.003 4.696l0.23-0.109h-0.747c-11.639 4.090-21.247 11.527-27.931 21.148l-0.122 0.185c-0.976 1.489-1.904 3.205-2.685 5l-0.088 0.226c-29.76 64-54.080 76.267-113.6 56.853-48.533-15.68-100.907-12.16-151.36-8.747-20.16 1.28-39.147 2.56-57.173 2.56-23.564 0-42.667 19.103-42.667 42.667s19.103 42.667 42.667 42.667v0c21.333 0 42.667-1.387 62.827-2.773 44.373-2.987 86.293-5.76 119.36 4.907 98.987 32 154.773-4.907 189.12-52.587 7.573 37.44 12.907 76.587 18.133 114.453 1.813 13.547 3.627 27.093 5.653 40.64l4.587 32c24.747 175.68 50.453 357.227 77.547 535.787 0.747 4.693 1.28 9.707 1.813 14.72 3.413 30.613 8.533 76.907 53.333 106.667 6.669 4.524 14.896 7.223 23.753 7.223 8.086 0 15.647-2.249 22.091-6.157l-0.19 0.107c34.445-20.971 61.131-51.713 76.551-88.361l0.463-1.239c0.717-1.525 1.464-2.819 2.303-4.044l-0.063 0.098c62.72 21.333 127.253 18.027 189.653 14.72 17.408-1.324 37.702-2.079 58.173-2.079 10.865 0 21.68 0.213 32.442 0.634l-1.548-0.048c0.797 0.053 1.728 0.083 2.667 0.083 23.61 0 42.75-19.14 42.75-42.75 0-22.672-17.649-41.222-39.957-42.66l-0.126-0.006c-7.962-0.26-17.323-0.409-26.719-0.409-25.325 0-50.398 1.078-75.176 3.191l3.229-0.222c-56.96 2.987-110.72 5.867-157.973-10.667-44.16-15.253-85.333 3.52-106.667 48.96 0 0.853-0.747 1.813-1.173 2.667-3.050 7.585-6.632 14.118-10.875 20.152l0.208-0.312q-0.96-6.4-1.92-14.72c-0.64-6.187-1.28-12.267-2.24-18.133-26.987-178.133-52.693-359.467-77.44-534.933l-4.587-32.427c-1.92-13.44-3.84-26.773-5.653-40.107-5.333-39.36-10.667-80-19.093-120.213l-0.853-4.267c-5.12-26.027-14.72-74.667-67.627-92.693-4.23-1.487-9.108-2.347-14.187-2.347-0.038 0-0.075 0-0.113 0h0.006zM395.2-53.333v0z" />
<glyph unicode="&#xe933;" glyph-name="ease-in-out-expo" d="M141.44 25.707c-19.733 0-39.36 0-58.88 0l-39.893 0.853c-23.564 0-42.667 19.103-42.667 42.667s19.103 42.667 42.667 42.667v0 0h40.747c13.99-0.467 30.436-0.734 46.944-0.734 44.904 0 89.348 1.971 133.25 5.83l-5.687-0.403c74.667 7.253 117.333 39.040 149.333 109.547 28.267 62.933 42.667 129.173 57.387 199.36 7.68 35.947 15.36 73.707 26.027 110.933 28.373 103.040 64 231.573 207.253 267.84 88.533 23.36 150.080 23.467 273.493 23.36h9.92c23.564 0 42.667-19.103 42.667-42.667s-19.103-42.667-42.667-42.667v0h-9.92c-119.573 0-173.867 0-252.053-20.587-89.28-22.827-115.947-97.173-146.56-208-9.493-34.773-17.28-71.253-24.853-106.667-15.147-71.467-30.933-145.28-62.933-216.427-44.267-98.56-113.493-149.333-218.133-160-32.489-3.204-70.226-5.031-108.39-5.031-5.995 0-11.98 0.045-17.953 0.135l0.903-0.011z" />
<glyph unicode="&#xe934;" glyph-name="ease-in-out-quad" d="M42.667 26.134c-23.564 0-42.667 19.103-42.667 42.667s19.103 42.667 42.667 42.667v0c72 0 106.667 18.133 156.48 48.107 89.707 54.613 166.827 133.973 250.133 257.28l20.053 29.12c66.88 99.2 136 201.707 237.013 278.613 67.2 50.773 152.427 102.613 275.413 102.613 23.564 0 42.667-19.103 42.667-42.667s-19.103-42.667-42.667-42.667v0c-92.16 0-156.16-34.027-224-85.333-89.92-68.267-152.213-160.533-218.027-258.24l-19.733-29.227c-61.333-90.133-147.413-203.84-276.587-282.347-56.427-34.347-107.093-60.587-200.747-60.587z" />
<glyph unicode="&#xe935;" glyph-name="ease-in-out-quart" d="M113.067 26.134h-70.4c-23.564 0-42.667 19.103-42.667 42.667s19.103 42.667 42.667 42.667v0h70.4c153.493 0 245.333 56 296.427 181.333 14.293 34.667 27.627 70.827 40.533 105.813s27.2 73.92 42.667 110.72c45.973 110.187 97.92 234.667 234.027 292.8 58.56 24.853 167.467 24.853 254.933 24.853 23.564 0 42.667-19.103 42.667-42.667s-19.103-42.667-42.667-42.667v0c-71.253 0-179.093 0-221.653-18.027-104-44.267-145.067-142.72-188.48-247.040-14.507-35.093-28.053-71.893-41.173-107.413s-26.667-72.747-41.6-108.8c-65.067-157.547-187.84-234.24-375.68-234.24z" />
<glyph unicode="&#xe936;" glyph-name="ease-in-out-quint" d="M192.96 26.134h-150.293c-23.564 0-42.667 19.103-42.667 42.667s19.103 42.667 42.667 42.667v0h140.8c108.373-1.493 171.413 28.48 210.56 100.16 24.933 45.832 46.293 99.019 61.315 154.804l1.191 5.196c3.52 12.587 6.827 24.64 10.667 36.693 23.147 85.333 47.040 172.693 92.053 254.507 53.333 97.173 129.6 148.693 233.28 157.44 61.12 4.907 124.267 6.187 185.387 7.36h3.093c0.254 0.005 0.553 0.009 0.853 0.009 23.569 0 42.675-19.106 42.675-42.675 0-23.269-18.623-42.188-41.777-42.666l-0.045-0.001h-3.093c-59.84-1.173-121.707-2.347-180.053-7.147-75.413-6.613-126.507-41.813-165.973-113.707s-61.76-152.107-84.693-236.053c-3.307-12.16-6.613-24.32-10.027-36.48-18.113-67.958-41.875-127.204-71.732-182.684l2.186 4.444c-69.973-127.147-188.907-144.533-276.373-144.533z" />
<glyph unicode="&#xe937;" glyph-name="ease-in-out-sine" d="M42.667 26.134c-23.564 0-42.667 19.103-42.667 42.667s19.103 42.667 42.667 42.667v0c38.72 0 84.373 14.187 135.573 42.027 69.12 37.867 123.413 93.973 162.987 138.667 43.733 49.493 86.933 101.227 128.747 151.36 53.333 64 108.8 130.347 166.507 193.28 67.52 74.667 181.333 167.573 338.987 189.973 2.016 0.337 4.338 0.53 6.705 0.53 23.564 0 42.667-19.103 42.667-42.667 0-21.717-16.224-39.644-37.213-42.321l-0.212-0.022c-132.587-18.773-230.080-99.093-288-163.093-56.427-61.547-111.147-127.040-164.053-190.4-42.133-50.56-85.333-102.827-130.347-153.173s-105.173-112.853-186.027-157.12c-64-34.667-122.987-52.267-176.32-52.373z" />
<glyph unicode="&#xe938;" glyph-name="ease-in-quad" d="M42.667 26.134c-0.127-0.001-0.277-0.002-0.427-0.002-23.565 0-42.669 19.103-42.669 42.669 0 23.415 18.861 42.425 42.219 42.666h0.023c160 3.307 314.133 67.413 472.213 195.947 165.44 134.293 305.6 320 432.32 501.333 7.814 11.088 20.565 18.243 34.987 18.243 23.566 0 42.67-19.104 42.67-42.67 0-9.144-2.876-17.616-7.773-24.561l0.090 0.135c-130.347-186.24-274.88-378.027-448-518.933s-345.387-211.093-524.8-214.827z" />
<glyph unicode="&#xe939;" glyph-name="ease-in-quart" d="M176.107 25.6c-22.933 0-45.973 0-68.693 0s-43.413 1.067-64.747 1.067c-23.564 0-42.667 19.103-42.667 42.667s19.103 42.667 42.667 42.667v0c21.333 0 43.413 0 65.707 0 44.267 0 90.027-1.067 132.16 0 66.773 2.24 142.293 4.8 211.627 25.173 134.507 39.147 238.080 131.307 326.507 289.493 57.84 104.502 112.719 227.555 157.259 355.452l5.194 17.135c5.623 17.441 21.71 29.837 40.692 29.837 23.564 0 42.667-19.103 42.667-42.667 0-5.594-1.076-10.936-3.034-15.831l0.101 0.288c-51.491-149.956-108.312-277.197-174.8-398.383l6.586 13.103c-100.373-179.52-220.267-284.587-377.387-330.667-79.467-22.933-160.64-25.813-232.32-28.267-22.080-0.747-44.693-1.067-67.52-1.067z" />
<glyph unicode="&#xe93a;" glyph-name="ease-in-quint" d="M295.68 25.707c-32 0-64.96 0-96.96 0.64-51.947 0-105.813 1.173-155.627 0-0.238-0.005-0.519-0.007-0.8-0.007-23.568 0-42.674 19.106-42.674 42.674 0 23.287 18.653 42.217 41.832 42.666l0.042 0.001c51.093 0.96 105.493 0 158.080 0 56.96 0 115.84-1.173 170.667 0 193.493 4.48 323.093 82.24 408.427 244.8 64.844 125.587 119.731 271.618 157.148 424.505l2.852 13.788c4.599 18.991 21.451 32.877 41.547 32.877 23.577 0 42.69-19.113 42.69-42.69 0-3.481-0.417-6.866-1.203-10.105l0.060 0.292c-42.252-174.417-99.842-327.228-173.407-470.486l5.514 11.819c-99.093-189.973-256.533-285.013-482.133-289.92-24.747-0.64-50.347-0.853-76.053-0.853z" />
<glyph unicode="&#xe93b;" glyph-name="ease-in-sine" d="M42.667 26.134c-23.564 0-42.667 19.103-42.667 42.667s19.103 42.667 42.667 42.667v0c4.179-0.209 9.074-0.328 13.998-0.328 11.604 0 23.053 0.662 34.312 1.949l-1.376-0.128c177.067 23.040 312.64 125.227 411.733 211.627 145.707 128 275.307 282.027 400.533 431.36l47.147 56.107c7.8 11.209 20.619 18.453 35.13 18.453 23.564 0 42.667-19.103 42.667-42.667 0-11.95-4.913-22.753-12.829-30.499l-0.008-0.008-47.040-55.893c-127.36-151.787-258.987-309.333-409.707-440.747-107.947-94.72-257.28-206.4-456.747-232.32-12.951-1.612-27.94-2.532-43.143-2.532-5.159 0-10.294 0.106-15.402 0.316l0.732-0.024z" />
<glyph unicode="&#xe93c;" glyph-name="ease-out-back" d="M42.667-9.92c-0.010 0-0.021 0-0.032 0-23.564 0-42.667 19.103-42.667 42.667 0 5.364 0.99 10.497 2.797 15.226l-0.098-0.293c34.88 92.8 50.027 138.667 73.813 211.307 59.733 181.333 121.493 329.28 229.547 459.733 98.453 118.613 228.267 165.44 375.573 135.68 36.053-7.253 74.667-15.893 111.147-24.32 65.28-14.933 132.693-30.4 194.773-39.467 21.484-2.417 38.030-20.483 38.030-42.414 0-23.564-19.103-42.667-42.667-42.667-2.735 0-5.411 0.257-8.003 0.749l0.266-0.042c-65.387 9.493-134.507 25.28-201.387 40.427-37.76 8.853-74.027 17.067-109.013 24.107-117.333 23.893-213.333-10.667-293.013-106.667-99.413-120.107-157.547-259.307-214.187-431.787-23.467-71.68-39.573-120.32-74.667-214.613-6.258-16.282-21.768-27.628-39.928-27.628-0.1 0-0.2 0-0.3 0.001h0.015z" />
<glyph unicode="&#xe93d;" glyph-name="ease-out-bounce" d="M42.667 26.134c-0.127-0.001-0.277-0.002-0.427-0.002-23.565 0-42.669 19.103-42.669 42.669 0 23.415 18.861 42.425 42.219 42.666h0.023c44.907 0.96 67.413 34.453 99.2 89.493l6.507 11.413c72.64 124.267 110.72 259.733 151.147 403.2l8.96 32c1.92 6.507 3.733 12.587 5.547 18.88 10.667 38.187 23.68 81.387 44.907 116.8 7.619 12.363 21.084 20.48 36.445 20.48 0.050 0 0.1 0 0.15 0h-0.008c15.393-0.011 28.878-8.172 36.374-20.401l0.106-0.186 7.893-13.12c19.733-33.067 40.213-67.307 66.453-90.453 42.667-38.187 66.347-37.547 104.32 2.987 15.003 17.186 29.069 36.138 41.581 56.162l1.086 1.864c0.291 0.346 0.573 0.729 0.828 1.13l0.026 0.043c9.387 14.293 18.24 29.973 28.373 48.107l7.253 12.8c7.467 13.040 21.299 21.685 37.151 21.685 9.546 0 18.36-3.135 25.469-8.432l-0.113 0.081c51.307-37.973 76.16-32 104.107-8 30.613 26.453 65.707 17.173 84.48 12.16 3.803-1.18 8.55-2.293 13.399-3.106l0.681-0.094c7.068 5.392 16.026 8.64 25.741 8.64 23.564 0 42.667-19.103 42.667-42.667 0-11.684-4.697-22.272-12.306-29.977l0.004 0.004c-33.92-30.507-71.787-20.48-92.053-15.040l-10.667 2.56c-64.96-53.333-125.973-39.253-166.613-18.56-5.227-9.067-10.667-17.707-16.213-26.347-16.153-26.126-32.86-48.738-51.218-69.876l0.552 0.649-1.067-1.173c-70.4-75.627-145.707-78.72-224-9.28-17.11 15.583-32.273 32.778-45.421 51.491l-0.659 0.989c-2.667-8.64-5.227-17.28-7.68-25.707-1.92-6.507-3.733-12.907-5.547-18.987l-8.747-31.040c-39.573-142.507-81.6-289.707-159.68-423.36l-6.293-10.667c-32-54.933-74.667-130.24-171.413-132.267z" />
<glyph unicode="&#xe93e;" glyph-name="ease-out-circ" d="M42.667 26.134c-23.564 0-42.667 19.103-42.667 42.667v0c0 141.013 29.013 195.84 69.12 271.68 116.267 222.187 312.213 369.28 598.827 449.493 101.12 28.373 157.547 37.227 313.387 37.227 23.564 0 42.667-19.103 42.667-42.667s-19.103-42.667-42.667-42.667v0c-148.053 0-194.88-7.253-290.347-34.027-262.72-73.6-441.493-206.507-546.347-407.147-37.973-72.32-59.307-112-59.307-231.893 0-23.564-19.103-42.667-42.667-42.667v0z" />
<glyph unicode="&#xe93f;" glyph-name="ease-out-cubic" d="M42.667 26.134c-6.17 0.015-12.035 1.308-17.348 3.629l0.281-0.109c-15.118 6.785-25.458 21.706-25.458 39.042 0 6.009 1.242 11.728 3.484 16.914l-0.106-0.276c67.412 154.496 144.744 287.431 235.184 410.111l-4.038-5.737c105.387 142.080 222.827 236.8 359.147 289.707 100.267 39.36 204.48 42.133 305.173 44.907 26.56 0.64 53.333 1.387 80.213 2.773 0.701 0.041 1.521 0.064 2.347 0.064 23.6 0 42.731-19.131 42.731-42.731 0-22.774-17.816-41.387-40.272-42.662l-0.113-0.005c-27.627-1.493-55.573-2.24-82.56-2.987-97.707-2.667-189.973-5.12-276.48-39.147-122.667-47.467-224.747-130.453-321.6-260.907-82.786-111.92-156.869-239.138-216.414-374.206l-5.026-12.781c-6.753-15.195-21.714-25.6-39.105-25.6-0.015 0-0.030 0-0.044 0h0.002z" />
<glyph unicode="&#xe940;" glyph-name="ease-out-elastic" d="M64.64-85.333c-0.765-0.051-1.659-0.079-2.56-0.079s-1.795 0.029-2.681 0.086l0.121-0.006c-21.295 2.607-37.626 20.58-37.626 42.368 0 1.759 0.106 3.494 0.313 5.197l-0.020-0.205c12.053 101.973 22.4 210.347 32.427 315.307 17.6 182.933 35.627 372.053 64 547.307 0.64 3.84 1.173 7.68 1.707 11.52 3.733 27.84 9.387 69.76 51.307 96 6.483 4.182 14.403 6.668 22.903 6.668 10.928 0 20.896-4.108 28.444-10.864l-0.041 0.036c23.573-21.333 33.6-54.080 43.733-86.187 2.133-6.933 4.267-13.973 6.613-20.8l0.64-2.453c8.96-33.067 16-65.067 22.827-96 8.747-39.467 16.96-76.693 28.587-115.627v-1.28c6.293 7.253 12.267 15.573 18.667 24.427 11.824 17.358 24.492 32.532 38.48 46.374l0.026 0.026c17.493 16.533 71.36 67.733 144.64 14.507 20.16-14.613 46.080-19.627 81.493-15.68 53.742 5.232 116.178 8.215 179.312 8.215 20.365 0 40.658-0.31 60.874-0.927l-2.959 0.071c37.333 0 75.84-0.853 112.747 0 0.206 0.004 0.45 0.006 0.693 0.006 23.567 0 42.672-19.105 42.672-42.672 0-23.323-18.712-42.277-41.942-42.666h-0.037c-38.187-0.747-77.333 0-115.307 0-17.045 0.547-37.089 0.859-57.206 0.859-59.773 0-118.902-2.752-177.269-8.137l7.488 0.558c-57.067-6.293-103.253 4.053-141.12 31.36-13.12 9.6-15.893 11.627-35.947-7.467-10.088-10.199-19.249-21.358-27.319-33.314l-0.521-0.819c-16.96-23.68-36.267-50.453-68.907-68.587-5.966-3.371-13.101-5.358-20.7-5.358-5.967 0-11.648 1.225-16.805 3.437l0.278-0.106c-31.326 13.568-54.801 40.191-63.815 72.817l-0.185 0.783c-12.373 41.6-21.333 81.92-29.867 120.96-5.013 22.507-10.027 45.547-15.787 68.8-24.64-162.027-41.28-335.787-57.387-504-10.133-105.387-20.48-214.293-32.747-316.8-2.588-21.263-20.498-37.584-42.233-37.653h-0.007z" />
<glyph unicode="&#xe941;" glyph-name="ease-out-expo" d="M42.667 26.134c-1.021-0.074-2.212-0.116-3.413-0.116s-2.392 0.042-3.572 0.125l0.159-0.009c-20.497 3.36-35.946 20.943-35.946 42.134 0 2.6 0.233 5.147 0.678 7.619l-0.039-0.259c32 196.907 79.787 347.093 154.56 486.933 72.747 136.96 182.72 217.92 326.827 240.64 146.773 23.040 302.507 23.467 453.227 23.893h46.187c23.564 0 42.667-19.103 42.667-42.667s-19.103-42.667-42.667-42.667v0h-45.973c-147.413 0-299.84-0.853-440.213-22.827-117.76-18.667-204.373-82.88-264.747-196.267-70.4-131.52-115.093-273.493-145.067-460.693-3.404-20.448-20.963-35.844-42.118-35.844-0.193 0-0.386 0.001-0.578 0.004h0.029z" />
<glyph unicode="&#xe942;" glyph-name="ease-out-in-back" d="M42.667 26.134c-0.028 0-0.060 0-0.093 0-4.188 0-8.231 0.624-12.040 1.783l0.292-0.077c-18.007 5.271-30.935 21.637-30.935 41.022 0 4.391 0.663 8.627 1.895 12.614l-0.080-0.302c30.778 109.583 72.413 205.264 125.068 293.615l-3.041-5.509c39.253 65.493 105.92 150.080 231.787 129.92 98.88-16.107 196.587-36.16 290.667-59.413s124.907 3.2 162.347 49.92c67.947 85.333 103.36 207.787 131.84 306.667 4.779 18.729 21.499 32.357 41.402 32.357 23.564 0 42.667-19.103 42.667-42.667 0-4.781-0.787-9.379-2.237-13.671l0.088 0.301c-30.293-106.133-68.48-238.293-147.627-336.32-56.427-70.613-120.533-111.147-249.387-79.467-91.84 22.827-187.307 42.667-283.733 58.027-59.947 9.707-100.693-15.467-145.067-89.493-45.943-77.198-84.465-166.381-110.96-260.599l-1.893-7.881c-5.303-17.941-21.627-30.812-40.958-30.827h-0.002z" />
<glyph unicode="&#xe943;" glyph-name="ease-out-in-bounce" d="M42.667 26.134c-0.089-0.001-0.193-0.001-0.298-0.001-23.564 0-42.667 19.103-42.667 42.667 0 19.882 13.599 36.587 32.002 41.323l0.296 0.065c18.252 4.36 32.915 16.849 40.173 33.333l0.147 0.374 6.080 10.667c31.253 56.32 48.427 87.36 63.36 147.2l4.267 17.6c8.107 39.070 22.425 73.696 42.036 104.636l-0.756-1.276c7.497 12.915 21.263 21.462 37.024 21.462 13.967 0 26.367-6.711 34.15-17.085l0.079-0.11c12.684-17.619 25.351-33.061 38.9-47.673l-0.287 0.313c10.137 10.414 19.648 21.583 28.389 33.359l0.625 0.881c11.2 14.613 41.173 53.333 89.6 36.373 26.133-9.387 53.333 0 85.333 11.52 13.333 4.693 26.987 9.6 41.28 13.12h1.28c7.278 1.266 15.66 1.99 24.21 1.99 11.495 0 22.684-1.308 33.428-3.784l-0.998 0.194c4.373-0.747 10.667-1.707 14.4-2.133 5.016 6.976 9.97 14.965 14.381 23.285l0.552 1.141c3.733 6.72 7.253 13.013 10.667 18.027 39.573 60.8 84.16 54.293 114.56 38.080 12.483-6.831 23.241-14.766 32.798-23.942l-0.051 0.049c10.636 42.071 21.593 76.431 34.293 109.932l-2.293-6.892c3.2 8.107 6.4 16.533 9.6 25.067 23.040 61.547 51.733 138.133 137.707 168.213 4.792 2.023 10.363 3.199 16.208 3.199 23.564 0 42.667-19.103 42.667-42.667 0-19.305-12.821-35.616-30.413-40.881l-0.302-0.078c-48.213-16.96-66.56-65.92-85.973-117.333-3.413-9.173-6.827-18.24-10.667-26.88-11.733-29.44-24-74.667-34.88-115.2-6.4-23.573-12.373-45.867-18.133-64.533-5.635-17.42-21.712-29.797-40.679-29.797-14.798 0-27.837 7.534-35.49 18.975l-0.097 0.155c-4.267 6.4-8.213 12.693-12.053 18.667-16 24.96-25.387 39.040-40.427 48.107-1.387-1.813-3.093-4.267-5.333-7.68s-4.8-8.213-7.467-13.12c-10.667-19.307-24.107-43.413-45.333-57.387-23.573-16-50.773-11.413-72.747-7.68-7.066 1.56-15.183 2.454-23.509 2.454-0.173 0-0.345 0-0.518-0.001h0.027c-10.133-2.56-21.333-6.507-32.64-10.667-36.587-12.907-81.707-28.8-132.053-14.827l-2.453-4.267c-31.040-40.32-57.813-71.147-96.64-71.147h-0.533c-23.68 0-42.667 11.2-62.080 30.827-1.813-6.507-3.52-13.547-5.547-22.187-1.28-5.547-2.773-11.627-4.48-18.347-17.707-70.72-39.040-109.333-71.467-167.893l-6.187-10.667c-18.987-37.125-52.688-64.434-93.204-74.461l-0.982-0.206c-3.181-1.212-6.872-2.080-10.71-2.44l-0.17-0.013z" />
<glyph unicode="&#xe944;" glyph-name="ease-out-in-circ" d="M42.667 26.134v0c-23.564 0-42.667 19.103-42.667 42.667v0c0.747 69.867 31.36 148.053 81.92 208.533 94.080 119.467 228.907 184.107 399.787 192 109.013 5.227 214.613 15.253 305.707 79.893 35.52 24.747 151.253 115.947 151.253 235.307 0 23.564 19.103 42.667 42.667 42.667s42.667-19.103 42.667-42.667v0c0-160-143.253-274.24-187.2-305.28-109.867-77.867-233.707-89.92-351.147-96-147.307-6.507-257.6-58.773-337.493-160-38.4-45.653-62.293-104.96-62.827-154.88-0.241-23.38-19.25-42.24-42.665-42.24-0.001 0-0.002 0-0.002 0v0z" />
<glyph unicode="&#xe945;" glyph-name="ease-out-in-cubic" d="M42.667 26.134c-0.051 0-0.111 0-0.171 0-5.385 0-10.532 1.018-15.259 2.872l0.284-0.098c-16.228 6.284-27.527 21.768-27.527 39.89 0 5.445 1.020 10.653 2.88 15.441l-0.099-0.291c23.253 60.907 65.6 132.48 126.080 212.8 85.333 116.267 195.413 173.333 327.147 170.667 32.96-1.173 67.733-2.027 102.080 0 100.48 5.867 166.080 29.973 219.307 80.747 62.827 58.987 116.587 141.973 164.8 253.867 6.742 15.234 21.726 25.671 39.147 25.671 23.574 0 42.684-19.11 42.684-42.684 0-6.153-1.302-12.001-3.645-17.286l0.108 0.272c-53.333-122.88-113.173-215.147-184.427-282.133-87.147-83.093-192-99.2-273.173-103.893-37.76-2.24-74.667-1.28-109.44 0-103.36 2.027-186.773-42.027-256.107-136.64-55.893-74.667-94.507-138.667-114.773-192-6.369-16.055-21.765-27.2-39.765-27.2-0.045 0-0.090 0-0.136 0h0.007z" />
<glyph unicode="&#xe946;" glyph-name="ease-out-in-elastic" d="M42.667 26.134h-4.053c-21.852 2.035-38.823 20.282-38.823 42.493 0 1.489 0.076 2.959 0.225 4.409l-0.015-0.182c1.813 19.2 4.587 46.507 7.68 67.093 6.933 49.067 11.307 102.4 15.893 158.827 7.573 92.8 15.467 188.693 36.053 272.96 4.67 18.881 21.464 32.659 41.476 32.659 14.565 0 27.425-7.298 35.124-18.437l0.093-0.142c18.398-29.040 31.867-63.13 38.263-99.654l0.244-1.68c2.347-10.667 4.587-19.84 7.147-29.013 10.45 13.626 24.836 23.764 41.448 28.757l0.578 0.149c26.027 7.253 54.187 0 83.947-21.333 0.431-0.128 0.927-0.202 1.44-0.202s1.009 0.074 1.477 0.212l-0.037-0.009c74.667 16.64 149.333 13.44 220.693 10.667 21.174-1.658 45.848-2.603 70.744-2.603 30.411 0 60.492 1.41 90.182 4.169l-3.806-0.286c1.99 0.201 4.301 0.316 6.639 0.316 14.509 0 27.984-4.422 39.153-11.993l-0.245 0.157 3.52-1.92c2.721-0.996 5.042-2.11 7.236-3.415l-0.196 0.108c6.136-4.026 13.214-7.367 20.749-9.66l0.585-0.153c10.414 10.174 19.875 21.226 28.297 33.068l0.503 0.745c2.994 4.146 6.521 7.673 10.531 10.573l0.135 0.093c10.512 7.87 23.77 12.601 38.134 12.601 8.066 0 15.784-1.492 22.892-4.216l-0.438 0.148c14.751-6.534 26.442-17.743 33.424-31.717l0.176-0.39c4.48 36.373 9.28 73.493 13.973 109.973 9.173 71.36 18.667 144.747 24.96 209.493 2.241 21.774 20.488 38.613 42.667 38.613 23.682 0 42.879-19.198 42.879-42.879 0-1.503-0.077-2.987-0.228-4.45l0.015 0.183c-6.827-65.6-16.427-140.267-25.6-211.413-9.813-75.52-19.84-153.707-26.56-222.507-3.307-32-12.373-74.027-37.653-90.453-6.561-4.321-14.607-6.893-23.253-6.893-12.276 0-23.341 5.185-31.126 13.484l-0.021 0.023c-27.84 29.76-34.24 72.213-39.467 106.667-1.493 10.667-3.093 20.48-4.907 28.053-30.080-32-66.987-51.2-130.773-14.613-4.305 1.827-7.809 3.577-11.199 5.505l0.532-0.279-2.133 1.173c-26.694-2.313-57.758-3.631-89.131-3.631-26.363 0-52.508 0.931-78.404 2.762l3.482-0.197c-69.12 3.093-134.4 5.973-198.507-8.213-5.889-1.377-12.65-2.167-19.596-2.167-17.51 0-33.849 5.017-47.657 13.692l0.373-0.219-3.093 2.133c-3.444 2.672-7.322 5.152-11.418 7.268l-0.422 0.198c-2.183-3.434-4.223-7.401-5.901-11.552l-0.179-0.501c-9.99-26.667-35.262-45.305-64.888-45.305-8.445 0-16.537 1.515-24.017 4.287l0.478-0.155c-7.843 2.882-14.386 7.742-19.234 13.983l-0.072 0.097c-5.785 7.53-11.203 16.017-15.865 24.961l-0.455 0.959c-3.093-32-5.76-64-8.32-96-4.907-57.387-9.387-112-16.747-163.413-2.773-18.987-5.44-44.8-7.147-63.040-2.032-21.839-20.258-38.805-42.451-38.827h-0.002zM735.147 461.76l1.92-0.64c-0.487 0.201-1.126 0.419-1.778 0.605l-0.142 0.035z" />
<glyph unicode="&#xe947;" glyph-name="ease-out-in-expo" d="M42.667 26.134c-23.556 0.011-42.648 19.109-42.648 42.667 0 2.563 0.226 5.073 0.659 7.511l-0.038-0.258c13.415 70.013 30.605 130.838 52.344 189.453l-2.637-8.12c45.653 126.613 127.147 190.613 248.32 199.68 77.867 5.44 156.587 7.040 232.64 8.64 41.493 0.747 84.373 1.6 126.4 3.093 119.040 4.267 183.467 13.227 232 157.013 8.427 24.533 18.24 59.307 27.627 92.907 8.213 29.333 15.893 56.96 23.147 79.040 6.179 16.438 21.767 27.922 40.038 27.922 23.564 0 42.667-19.103 42.667-42.667 0-4.17-0.598-8.201-1.714-12.011l0.076 0.302c-6.613-20.373-14.080-47.147-22.080-75.627-9.387-34.347-19.52-70.827-28.8-97.493-64-190.827-173.547-209.707-309.333-214.187-42.667-1.493-85.333-2.347-128-3.2-74.667-1.493-152.533-3.093-228.373-8.427-87.893-6.187-139.947-48.853-174.080-142.72-17.776-46.846-33.748-103.232-45.077-161.279l-1.11-6.828c-3.586-20.233-21.033-35.404-42.026-35.413h-0.001z" />
<glyph unicode="&#xe948;" glyph-name="ease-out-in-quad" d="M42.667 26.134c-7.873 0.016-15.233 2.195-21.524 5.973l0.19-0.106c-12.814 7.521-21.282 21.232-21.282 36.921 0 7.849 2.119 15.203 5.817 21.521l-0.109-0.202c49.872 84.059 107.286 156.546 173.081 220.449l0.253 0.244c78.293 77.013 188.907 164.907 352.64 160.533h2.667c55.893 0 108.8 31.147 153.173 61.76 103.682 73.554 189.632 164.706 255.205 269.876l2.288 3.938c7.656 12.191 21.029 20.176 36.267 20.176 23.573 0 42.683-19.11 42.683-42.683 0-8.335-2.389-16.112-6.52-22.684l0.104 0.177c-74.241-119.186-168.233-218.754-278.443-296.967l-3.157-2.127c-53.333-36.267-123.84-78.933-206.187-76.8-103.893 2.773-191.147-37.867-291.093-136.213-60.667-58.894-113.384-125.462-156.72-198.266l-2.426-4.401c-7.542-12.724-21.204-21.12-36.826-21.12-0.028 0-0.056 0-0.085 0h0.004z" />
<glyph unicode="&#xe949;" glyph-name="ease-out-in-quart" d="M42.667 26.134c-0.012 0-0.026 0-0.041 0-23.564 0-42.667 19.103-42.667 42.667 0 4.689 0.756 9.201 2.154 13.421l-0.086-0.301c23.122 70.126 48.389 129.375 77.915 186.051l-3.248-6.851c73.493 144.213 189.973 213.333 344.853 205.227 60.587-2.987 121.28-1.707 177.92 0 120.64 3.84 192.747 40.96 241.28 124.16 38.4 68.907 77.44 142.507 100.267 208.107 5.996 16.811 21.778 28.628 40.32 28.628 23.587 0 42.708-19.121 42.708-42.708 0-5.045-0.875-9.885-2.481-14.378l0.093 0.298c-25.067-71.68-66.133-149.333-106.667-222.187-83.84-143.68-218.667-164.267-312.853-167.147-58.347-1.813-121.173-3.093-184.853 0-122.133 6.187-206.293-44.16-265.067-158.827-24.266-46.305-47.592-101.404-66.567-158.49l-2.34-8.123c-5.712-17.29-21.724-29.547-40.599-29.547-0.014 0-0.029 0-0.043 0h0.002z" />
<glyph unicode="&#xe94a;" glyph-name="ease-out-in-quint" d="M42.667 26.134c-0.008 0-0.018 0-0.027 0-23.564 0-42.667 19.103-42.667 42.667 0 3.404 0.399 6.716 1.152 9.89l-0.058-0.29c13.973 60.267 38.72 114.773 62.933 166.933l11.733 26.987c55.040 121.387 148.16 185.6 277.333 191.040 76.907 2.773 154.453 3.093 229.44 3.413h88.747c85.333 0.64 137.813 27.733 176.107 90.453 38.863 68.193 70.741 147.11 91.535 230.415l1.372 6.492c4.677 18.883 21.476 32.661 41.493 32.661 23.576 0 42.688-19.112 42.688-42.688 0-3.559-0.435-7.015-1.256-10.32l0.062 0.294c-24.558-98.832-59.756-185.659-105.303-265.839l2.69 5.145c-54.933-88.853-133.867-130.56-248.64-131.52h-89.173c-74.667 0-151.147-0.64-226.453-3.413-97.6-4.053-160-47.467-202.667-140.693-4.053-9.173-8.213-18.24-12.373-27.307-23.253-50.987-45.333-98.88-57.067-151.253-4.519-19.085-21.413-33.067-41.573-33.067-0.010 0-0.019 0-0.029 0h0.002z" />
<glyph unicode="&#xe94b;" glyph-name="ease-out-in-sine" d="M42.667 26.134c-0.058 0-0.126 0-0.194 0-23.564 0-42.667 19.103-42.667 42.667 0 10.37 3.699 19.876 9.851 27.27l-0.056-0.069c80.213 98.24 168.747 200.533 272.213 282.773 54.933 43.733 122.667 88.747 206.933 90.56 66.010 0.912 126.886 22.148 176.853 57.715l-0.959-0.649c106.667 72.96 198.827 181.333 283.627 285.227 7.752 11.583 20.784 19.107 35.572 19.107 23.564 0 42.667-19.103 42.667-42.667 0-11.586-4.618-22.094-12.114-29.782l0.009 0.009c-88.64-109.867-184.96-223.147-301.227-302.293-62.056-43.992-139.037-70.767-222.206-71.996l-0.301-0.004c-58.667-1.28-109.44-35.413-155.627-72.107-97.28-77.227-182.187-175.467-259.307-270.080-7.884-9.602-19.756-15.68-33.048-15.68-0.007 0-0.013 0-0.020 0h0.001z" />
<glyph unicode="&#xe94c;" glyph-name="ease-out-quad" d="M42.667 26.134c-0.006 0-0.012 0-0.019 0-23.564 0-42.667 19.103-42.667 42.667 0 8.336 2.39 16.113 6.523 22.684l-0.104-0.177c144.747 233.067 302.933 415.147 483.307 556.693 133.547 104.96 307.307 168.533 489.173 179.093 0.733 0.045 1.59 0.070 2.453 0.070 23.603 0 42.737-19.134 42.737-42.737 0-22.74-17.76-41.332-40.167-42.661l-0.117-0.006c-164.587-9.6-321.387-66.773-441.493-161.173-172.48-135.040-324.053-309.867-463.36-534.293-7.654-12.182-21.019-20.16-36.248-20.16-0.007 0-0.013 0-0.020 0h0.001z" />
<glyph unicode="&#xe94d;" glyph-name="zoom-in" d="M524.583 512.457h-98.372v-98.372h-48.043v98.372h-98.372v48.043h98.372v98.372h48.043v-98.372h98.372v-48.043zM403.33 315.712q91.51 0 155.569 64.057t64.057 155.569-64.057 155.569-155.569 64.057-155.569-64.057-64.057-155.569 64.057-155.569 155.569-64.057zM696.165 315.712l242.503-242.503-73.21-73.21-242.503 242.503v38.89l-13.728 13.728q-86.934-75.495-205.898-75.495-132.69 0-225.345 91.51t-92.653 224.2 92.653 225.345 225.345 92.653 224.2-92.653 91.51-225.345q0-48.043-22.877-108.67t-52.618-97.23l13.728-13.728h38.89z" />
<glyph unicode="&#xe94e;" glyph-name="zoom-out" d="M279.792 560.499h244.789v-48.043h-244.789v48.043zM403.33 315.71q91.51 0 155.568 64.057t64.057 155.568-64.057 155.568-155.568 64.057-155.568-64.057-64.057-155.568 64.057-155.568 155.568-64.057zM696.165 315.71l242.502-242.502-73.209-73.209-242.502 242.502v38.891l-13.727 13.727q-86.934-75.496-205.898-75.496-132.69 0-225.344 91.51t-92.654 224.2 92.654 225.344 225.344 92.654 224.2-92.654 91.51-225.344q0-48.043-22.877-108.669t-52.618-97.23l13.727-13.727h38.891z" />
<glyph unicode="&#xe94f;" glyph-name="zoom-to-fit" d="M938.666 284.445v-284.444h-284.444l108.888 108.888-137.778 135.556 68.888 68.888 135.556-137.778zM369.778 0.001h-284.444v284.444l108.888-108.888 135.556 137.778 68.888-68.888-137.778-135.556zM85.334 568.889v284.444h284.444l-108.888-108.888 137.778-135.556-68.888-68.888-135.556 137.778zM654.222 853.333h284.444v-284.444l-108.888 108.888-135.556-137.778-68.888 68.888 137.778 135.556z" />
<glyph unicode="&#xe950;" glyph-name="ease-out-quart" d="M42.667 26.134c-0.052 0-0.114 0-0.176 0-4.351 0-8.548 0.663-12.494 1.893l0.297-0.080c-17.705 5.462-30.347 21.679-30.347 40.849 0 4.454 0.683 8.749 1.949 12.786l-0.082-0.302c58.027 192 132.267 350.080 226.987 483.947 106.667 149.867 242.987 234.667 405.973 250.667 110.827 11.307 221.973 11.413 339.52 11.413h7.040c23.564 0 42.667-19.103 42.667-42.667s-19.103-42.667-42.667-42.667v0h-3.52c-116.267 0-226.773 0-334.4-10.667-139.413-14.507-252.267-84.907-344.747-215.573-89.493-126.080-160-276.373-215.147-459.307-5.479-17.677-21.683-30.293-40.833-30.293-0.007 0-0.014 0-0.021 0h0.001z" />
<glyph unicode="&#xe951;" glyph-name="ease-out-quint" d="M42.667 26.134c-0.086-0.001-0.188-0.001-0.29-0.001-3.685 0-7.261 0.467-10.672 1.346l0.296-0.065c-18.542 4.911-31.986 21.54-31.986 41.308 0 3.664 0.462 7.221 1.331 10.614l-0.064-0.296c5.973 24.32 13.653 48.213 21.333 71.253 5.227 16.427 10.667 32 14.507 47.467 41.117 146.535 100.285 274.698 176.37 390.776l-3.25-5.283c89.067 137.067 213.973 214.507 371.2 230.4 118.613 11.947 251.52 12.693 368.747 13.333h30.827c23.564 0 42.667-19.103 42.667-42.667s-19.103-42.667-42.667-42.667v0h-31.040c-115.307-0.64-245.973-1.387-360.64-12.907-132.053-13.333-232.853-76.16-308.16-192-68.588-104.229-124.262-224.811-160.66-353.486l-2.22-9.181c-4.8-16.853-10.667-33.707-15.36-50.133-6.933-22.4-13.547-43.84-18.88-65.387-4.751-18.753-21.472-32.411-41.385-32.427h-0.002z" />
<glyph unicode="&#xe952;" glyph-name="ease-out-sine" d="M42.667 26.134c-0.090-0.001-0.196-0.001-0.302-0.001-23.564 0-42.667 19.103-42.667 42.667 0 10.37 3.7 19.876 9.851 27.27l-0.056-0.069c150.507 185.493 313.173 380.373 508.907 539.627 97.707 79.68 218.24 164.373 371.413 187.307 21.785 2.915 46.97 4.579 72.544 4.579 6.673 0 13.32-0.113 19.938-0.338l-0.962 0.026c23.564 0 42.667-19.103 42.667-42.667s-19.103-42.667-42.667-42.667v0c-5.185 0.181-11.278 0.284-17.395 0.284-21.421 0-42.546-1.266-63.305-3.727l2.513 0.243c-133.12-20.053-237.653-93.227-330.667-169.173-189.547-154.133-349.227-345.493-496.64-527.467-7.875-9.715-19.803-15.878-33.171-15.893h-0.003z" />
<glyph unicode="&#xe953;" glyph-name="skip-previous" d="M370.668 426.667l482.668 341.332v-682.668zM170.668 767.999h114.668v-682.668h-114.668v682.668z" />
<glyph unicode="&#xe954;" glyph-name="palette" d="M772 426.667q28.888 0 50 20t21.112 51.112-21.112 51.112-50 20-50-20-21.112-51.112 21.112-51.112 50-20zM629.778 615.555q28.888 0 50 21.112t21.112 50-21.112 50-50 21.112-50-21.112-21.112-50 21.112-50 50-21.112zM394.222 615.555q28.888 0 50 21.112t21.112 50-21.112 50-50 21.112-50-21.112-21.112-50 21.112-50 50-21.112zM252 426.667q28.888 0 50 20t21.112 51.112-21.112 51.112-50 20-50-20-21.112-51.112 21.112-51.112 50-20zM512 853.333q175.556 0 301.112-111.112t125.556-268.888q0-97.778-70-166.666t-167.778-68.888h-82.222q-31.112 0-51.112-21.112t-20-50q0-24.444 17.778-46.666t17.778-48.888q0-31.112-20-51.112t-51.112-20q-177.778 0-302.222 124.444t-124.444 302.222 124.444 302.222 302.222 124.444z" />
</font>
</defs>
</svg>
